<svg width="32" height="32" viewBox="0 0 32 32" fill="none" xmlns="http://www.w3.org/2000/svg">
<path d="M0 0V32H2V2H32V0H0Z" fill="#45469B"/>
<path d="M7 30H5V32H7V30Z" fill="#45469B"/>
<path d="M12 30H10V32H12V30Z" fill="#45469B"/>
<path d="M17 30H15V32H17V30Z" fill="#45469B"/>
<path d="M22 30H20V32H22V30Z" fill="#45469B"/>
<path d="M27 30H25V32H27V30Z" fill="#45469B"/>
<path d="M32 25H30V27H32V25Z" fill="#45469B"/>
<path d="M32 20H30V22H32V20Z" fill="#45469B"/>
<path d="M32 15H30V17H32V15Z" fill="#45469B"/>
<path d="M32 10H30V12H32V10Z" fill="#45469B"/>
<path d="M32 5H30V7H32V5Z" fill="#45469B"/>
<path d="M32 30H30V32H32V30Z" fill="#45469B"/>
</svg>
