<svg width="80" height="80" viewBox="0 0 80 80" fill="none" xmlns="http://www.w3.org/2000/svg">
<path fill-rule="evenodd" clip-rule="evenodd" d="M78.5162 25.1081C77.0616 22.6888 75.9243 20.5562 74.4867 18.1778C74.355 17.9636 71.7868 13.9 70.6158 12.1579C69.7923 10.9294 68.9622 9.44883 67.8755 8.24548C67.5181 7.88961 67.1371 7.55504 66.7348 7.24374C66.3421 6.97495 65.9132 6.75569 65.4591 6.59166C64.4028 6.2042 62.6749 5.75373 61.2676 5.38831C58.2067 4.58818 55.193 3.30923 52.4021 2.07753C50.7417 1.3404 49.5842 0.452061 47.8866 0.121298C47.3431 -0.031372 46.7647 -0.0400967 46.2161 0.0960966L46.0204 0.127598C44.1575 0.244153 42.0786 0.300855 39.9964 0.300855C37.9142 0.300855 35.8353 0.244153 33.9724 0.127598L33.7767 0.0960966C33.2281 -0.0400967 32.6498 -0.031372 32.1062 0.121298C30.4188 0.452061 29.2511 1.3404 27.5907 2.07753C24.8166 3.30923 21.7861 4.59763 18.7252 5.38831C17.3179 5.75373 15.59 6.2042 14.5337 6.59166C14.0796 6.75569 13.6507 6.97495 13.258 7.24374C12.8557 7.55504 12.4747 7.88961 12.1173 8.24548C11.0307 9.44883 10.2038 10.9294 9.37702 12.1579C8.19922 13.9094 5.62088 17.9731 5.50277 18.1873C4.06511 20.5562 2.92781 22.6888 1.47328 25.1176C0.862442 26.1382 -0.163491 27.2943 0.0221216 28.1259C0.207735 28.9576 3.46777 30.331 3.56902 30.3846C5.06742 31.1564 6.24184 31.7927 7.59851 32.492C8.1351 32.7661 11.8102 34.9334 12.7585 34.7475C13.7069 34.5616 13.7136 33.415 14.3717 32.9425C15.1001 32.4069 15.7462 31.7805 16.2919 31.0808C16.5147 30.8287 17.1323 29.8617 17.2706 29.6317C17.4967 29.2568 17.6284 28.6646 18.0232 28.3716C18.1379 28.2929 18.2594 28.2834 18.2932 28.4536C18.688 30.3058 18.5598 32.0006 18.5598 33.8277V63.6216C18.5598 67.7168 18.8973 71.708 18.5598 75.507C18.5359 75.912 18.4829 76.3151 18.4012 76.7135C18.3236 77.0285 17.9962 77.2774 18.2392 77.7657C19.4575 80.1283 31.3502 79.8573 32.2817 79.8794C34.8937 79.9424 37.4586 79.9896 40.0099 79.9991C42.5612 80.0085 45.1261 79.9424 47.7415 79.8794C48.6527 79.8573 60.5421 80.1156 61.7637 77.7719C62.0067 77.2837 61.6794 77.0411 61.6018 76.7198C61.5201 76.3214 61.4671 75.9183 61.4431 75.5133C61.1057 71.7143 61.4431 67.7167 61.4431 63.6279V33.8214C61.4431 31.9943 61.3149 30.2995 61.7097 28.4473C61.7469 28.2771 61.8684 28.2866 61.9797 28.3653C62.3746 28.6426 62.5062 29.2348 62.7323 29.6254C62.8707 29.8554 63.4916 30.8224 63.711 31.0745C64.2568 31.7751 64.9042 32.4017 65.6346 32.9362C66.2893 33.4087 66.3366 34.5648 67.2444 34.7412C68.1522 34.9176 71.8678 32.7598 72.4044 32.4857C73.7543 31.7864 74.9355 31.1501 76.4339 30.3783C76.5385 30.3247 79.8087 28.9513 79.9808 28.1196C80.1529 27.288 79.127 26.1288 78.5162 25.1081Z" fill="white"/>
<g style="mix-blend-mode:multiply">
<path fill-rule="evenodd" clip-rule="evenodd" d="M14.535 16.2878C15.1391 18.2504 15.7938 21.1485 16.5599 23.0953C17.326 25.042 17.0358 28.504 16.0335 30.3406C15.6555 31.0304 15.021 31.4337 14.4304 32.0983C14.2046 32.3506 13.9474 32.5769 13.6644 32.7725C14.0356 32.1204 14.4439 31.5723 14.7915 30.9674C15.2741 30.1358 15.966 29.2758 15.7601 27.8173C15.5711 26.4754 14.3157 25.2972 13.6644 24.0561C13.3269 23.426 13.3539 22.1187 13.3438 20.9059C13.823 22.1093 13.8196 23.741 14.9974 24.3175C15.1189 24.3742 15.1223 24.2955 15.1256 24.264C15.3686 21.747 14.0862 18.9465 14.535 16.2878Z" fill="#E4E3E1"/>
</g>
<g style="mix-blend-mode:multiply">
<path fill-rule="evenodd" clip-rule="evenodd" d="M65.4455 16.2878C64.8414 18.2504 64.1901 21.1485 63.4206 23.0953C62.6512 25.042 62.9448 28.504 63.9471 30.3406C64.325 31.0304 64.9595 31.4337 65.5535 32.0983C65.7772 32.3514 66.0333 32.5778 66.3162 32.7725C65.9449 32.1204 65.54 31.5723 65.189 30.9674C64.7064 30.1358 64.0146 29.2758 64.2204 27.8173C64.4094 26.4754 65.6648 25.2972 66.3162 24.0561C66.6536 23.426 66.6267 22.1187 66.6536 20.9059C66.1711 22.1093 66.1744 23.741 64.9966 24.3175C64.8751 24.3742 64.8718 24.2955 64.8684 24.264C64.6119 21.747 65.8943 18.9465 65.4455 16.2878Z" fill="#E4E3E1"/>
</g>
<g style="mix-blend-mode:multiply">
<path fill-rule="evenodd" clip-rule="evenodd" d="M78.5162 25.1081C77.0616 22.6888 75.9243 20.5562 74.4867 18.1778C74.355 17.9636 71.7868 13.9 70.6158 12.1579C69.7923 10.9294 68.9622 9.44883 67.8755 8.24548C67.5181 7.88961 67.1371 7.55504 66.7348 7.24374C66.3421 6.97495 65.9132 6.75569 65.4591 6.59166C64.4028 6.2042 62.6749 5.75373 61.2676 5.38831C58.2067 4.58818 55.193 3.30923 52.4021 2.07753C50.7417 1.3404 49.5842 0.452061 47.8866 0.121298C47.3431 -0.031372 46.7647 -0.0400967 46.2161 0.0960966L46.0204 0.127598C44.1575 0.244153 42.0786 0.300855 39.9964 0.300855C37.9142 0.300855 35.8353 0.244153 33.9724 0.127598L33.7767 0.0960966C33.2281 -0.0400967 32.6498 -0.031372 32.1062 0.121298C30.4188 0.452061 29.2511 1.3404 27.5907 2.07753C24.8166 3.30923 21.7861 4.59763 18.7252 5.38831C17.3179 5.75373 15.59 6.2042 14.5337 6.59166C14.0796 6.75569 13.6507 6.97495 13.258 7.24374C12.8557 7.55504 12.4747 7.88961 12.1173 8.24548C11.0307 9.44883 10.2038 10.9294 9.37702 12.1579C8.19922 13.9094 5.62088 17.9731 5.50277 18.1873C4.06511 20.5562 2.92781 22.6888 1.47328 25.1176C0.862442 26.1382 -0.163491 27.2943 0.0221216 28.1259C0.207735 28.9576 3.46777 30.331 3.56902 30.3846C5.06742 31.1564 6.24184 31.7927 7.59851 32.492C8.1351 32.7661 11.8102 34.9334 12.7585 34.7475C13.7069 34.5616 13.7136 33.415 14.3717 32.9425C15.1001 32.4069 15.7462 31.7805 16.2919 31.0808C16.5147 30.8287 17.1323 29.8617 17.2706 29.6317C17.4967 29.2568 17.6284 28.6646 18.0232 28.3716C18.1379 28.2929 18.2594 28.2834 18.2932 28.4536C18.688 30.3058 18.5598 32.0006 18.5598 33.8277V63.6216C18.5598 67.7168 18.8973 71.708 18.5598 75.507C18.5359 75.912 18.4829 76.3151 18.4012 76.7135C18.3236 77.0285 17.9962 77.2774 18.2392 77.7657C19.4575 80.1283 31.3502 79.8573 32.2817 79.8794C34.8937 79.9424 37.4586 79.9896 40.0099 79.9991C42.5612 80.0085 45.1261 79.9424 47.7415 79.8794C48.6527 79.8573 60.5421 80.1156 61.7637 77.7719C62.0067 77.2837 61.6794 77.0411 61.6018 76.7198C61.5201 76.3214 61.4671 75.9183 61.4431 75.5133C61.1057 71.7143 61.4431 67.7167 61.4431 63.6279V33.8214C61.4431 31.9943 61.3149 30.2995 61.7097 28.4473C61.7469 28.2771 61.8684 28.2866 61.9797 28.3653C62.3746 28.6426 62.5062 29.2348 62.7323 29.6254C62.8707 29.8554 63.4916 30.8224 63.711 31.0745C64.2568 31.7751 64.9042 32.4017 65.6346 32.9362C66.2893 33.4087 66.3366 34.5648 67.2444 34.7412C68.1522 34.9176 71.8678 32.7598 72.4044 32.4857C73.7543 31.7864 74.9355 31.1501 76.4339 30.3783C76.5385 30.3247 79.8087 28.9513 79.9808 28.1196C80.1529 27.288 79.127 26.1288 78.5162 25.1081ZM79.4813 27.9653C79.2012 28.5953 77.6016 29.1056 76.5824 29.6222C73.6295 31.1217 70.7474 32.7535 67.6899 34.0923C67.3962 34.2214 67.187 34.2372 67.0318 34.0167C66.7813 33.635 66.5559 33.2394 66.3568 32.8322C66.2914 32.722 66.217 32.6167 66.1341 32.5172C65.9441 32.3642 65.767 32.1978 65.6042 32.0195C65.017 31.3548 64.3691 30.7594 63.9911 30.0633C62.9787 28.2362 62.7323 24.9128 63.5085 22.9912C64.2341 21.1862 65.7494 16.2941 65.4287 15.4309C65.3849 15.3175 65.2836 15.2829 65.2566 15.4309C64.7403 17.8912 64.3691 20.3073 63.1845 22.6762C62.6479 23.7567 61.9628 24.6797 61.5714 25.8263C60.1945 29.9215 60.7682 35.6988 60.7682 41.1738V63.8956C60.7682 67.8396 60.4577 71.8056 60.7682 75.3306C60.8159 76.0505 60.9786 76.7598 61.2508 77.4349C59.9009 78.5847 57.687 78.8682 55.2875 79.0919C52.8881 79.3155 46.0204 79.3407 39.9795 79.3187C33.9387 79.2966 27.0541 79.3187 24.6749 79.0919C22.2957 78.865 20.0616 78.5847 18.7083 77.4349C18.9802 76.7596 19.144 76.0505 19.1943 75.3306C19.5014 71.8056 19.1943 67.8396 19.1943 63.8956V41.2084C19.1943 35.7335 19.7646 29.9499 18.3877 25.861C17.9962 24.7049 17.3111 23.7819 16.7745 22.7109C15.5934 20.3325 15.2221 17.9164 14.7058 15.4656C14.6754 15.3238 14.5742 15.3585 14.5303 15.4656C14.1928 16.3161 15.725 21.2083 16.4506 23.0259C17.2268 24.9475 16.9703 28.2708 15.968 30.0979C15.59 30.7909 14.9555 31.3895 14.3582 32.0541C14.1937 32.2309 14.0167 32.3972 13.8284 32.5519C13.7431 32.6504 13.6675 32.7558 13.6022 32.8669C13.4045 33.2747 13.1791 33.6703 12.9273 34.0513C12.772 34.2718 12.5628 34.2561 12.2692 34.1269C9.21165 32.7881 6.32959 31.1564 3.37665 29.6569C2.36422 29.1403 0.757823 28.6394 0.477716 27.9999C0.305603 27.6156 1.20329 26.5603 1.60489 25.8956C2.08074 25.1081 6.29584 18.0203 6.44096 17.7683C7.38589 16.1933 8.73243 14.1772 9.81574 12.5045C9.95748 12.2871 11.1994 10.2049 11.7495 9.49293C12.3054 8.79214 12.9696 8.17217 13.7204 7.65325C14.9994 6.94763 17.139 6.41525 19.2078 5.84823C20.6876 5.42489 22.1401 4.92213 23.5578 4.34247C24.2328 4.07471 24.955 3.73449 25.6536 3.44153C26.7268 2.99106 27.7223 2.58785 28.7179 2.08698C29.0351 1.92632 29.3928 1.77197 29.6831 1.63651C30.4559 1.26164 31.0026 0.905679 31.9408 0.732422C32.6634 0.630936 33.3983 0.630936 34.1209 0.732422L34.3335 0.754473C36.1222 0.858427 38.0458 0.911979 39.993 0.911979C41.9403 0.911979 43.8639 0.858427 45.6559 0.754473L45.8685 0.732422C46.59 0.630968 47.3237 0.630968 48.0453 0.732422C48.9834 0.905679 49.5302 1.26164 50.303 1.63651C50.5831 1.77197 50.9509 1.92632 51.2682 2.08698C52.2806 2.58785 53.2593 2.99106 54.3325 3.44153C55.0311 3.73449 55.7465 4.07156 56.4282 4.34247C57.8471 4.92214 59.3007 5.4249 60.7817 5.84823C62.847 6.4121 64.9867 6.94763 66.2623 7.65325C66.9973 8.16422 67.6487 8.77226 68.1961 9.45828C68.7462 10.1702 69.9881 12.2524 70.1298 12.4698C71.2233 14.1425 72.5698 16.1712 73.5046 17.7337C73.6497 17.9762 77.8648 25.0735 78.3407 25.861C78.7524 26.5257 79.6501 27.581 79.478 27.9653H79.4813Z" fill="#4E4C42"/>
</g>
<g style="mix-blend-mode:multiply">
<path d="M31.0039 2.87109C31.2381 3.70289 31.6904 4.46719 32.3201 5.09508C32.8755 5.75852 33.5837 6.29683 34.3922 6.67015C36.0155 7.42933 37.8986 7.61519 39.7311 7.56793C41.5729 7.54739 43.3941 7.20439 45.1004 6.55674C45.9359 6.22144 46.6988 5.74636 47.3513 5.15494C48.07 4.61751 48.6164 3.90586 48.9307 3.0979C48.8744 3.53815 48.7326 3.96514 48.5123 4.35795C48.2934 4.76304 48.0226 5.14174 47.7057 5.4857C47.0093 6.11331 46.1962 6.61717 45.3062 6.97256C43.5398 7.64243 41.6545 7.99717 39.748 8.0184C37.8648 8.07196 35.9041 7.88295 34.1627 7.07336C33.2894 6.66773 32.5222 6.08812 31.9151 5.37545C31.648 4.9966 31.4326 4.58813 31.2739 4.1595C31.1108 3.74623 31.0197 3.31126 31.0039 2.87109Z" fill="#4E4C42"/>
</g>
<g style="mix-blend-mode:multiply">
<path d="M30.998 2.8933C30.932 2.70646 30.9012 2.51035 30.9069 2.31368C30.9102 2.20216 30.9451 2.09345 31.0082 1.99866C31.0422 1.9477 31.087 1.90375 31.1398 1.86951L31.2579 1.78131C31.4397 1.65188 31.651 1.56347 31.8755 1.52299C32.0864 1.47895 32.3009 1.45155 32.5167 1.44109C33.3449 1.47574 34.17 1.55885 34.987 1.68995C36.5981 1.88416 38.2227 1.96314 39.8467 1.92621C41.4734 1.91046 43.1101 1.85061 44.73 1.72775C45.1114 1.70255 45.5197 1.61435 45.9281 1.56395C46.3364 1.51354 46.7482 1.45369 47.1666 1.43164C47.3826 1.43554 47.5979 1.45343 47.8112 1.48519C48.0346 1.50644 48.2513 1.56852 48.4491 1.6679C48.6186 1.79433 48.7581 1.95234 48.8586 2.13186C48.9591 2.31138 49.0185 2.50848 49.0329 2.71059C48.9226 2.35855 48.6728 2.05893 48.3343 1.87266C48.1549 1.82314 47.9673 1.80499 47.7808 1.81911C47.5852 1.82461 47.3901 1.8425 47.197 1.87266C46.8022 1.90101 46.4006 1.94196 45.999 2.00181C45.5974 2.06167 45.2025 2.13727 44.7705 2.16877C43.127 2.29163 41.4936 2.35148 39.8501 2.36723C38.2012 2.40422 36.5518 2.32312 34.9162 2.12467C34.1204 1.9987 33.3166 1.92188 32.51 1.89471C32.1369 1.827 31.751 1.85866 31.3963 1.98606L31.2579 2.05537C31.2221 2.07006 31.1899 2.09151 31.1634 2.11837C31.104 2.18016 31.0622 2.2549 31.0419 2.33573C30.9951 2.51815 30.9803 2.70645 30.998 2.8933Z" fill="#4E4C42"/>
</g>
<g style="mix-blend-mode:multiply">
<path fill-rule="evenodd" clip-rule="evenodd" d="M48.7114 3.08857C48.7991 2.93421 48.6439 2.88066 48.5393 2.83971C47.2062 2.30734 45.016 2.73575 43.0586 2.83971C40.9105 2.95016 38.7575 2.95016 36.6094 2.83971C34.8984 2.7389 32.3909 2.13408 31.4393 2.87751C31.4393 2.87751 31.257 3.19252 31.0039 2.87751C31.0411 3.01409 31.0861 3.14869 31.1389 3.28073C31.1453 3.31399 31.1579 3.34596 31.176 3.37523C31.433 4.01485 31.8217 4.6013 32.3201 5.1015C32.8755 5.76493 33.5837 6.30324 34.3922 6.67657C36.0155 7.43575 37.8986 7.6216 39.7311 7.57435C41.5733 7.5518 43.3946 7.20666 45.1004 6.55686C45.9359 6.22155 46.6988 5.74647 47.3513 5.15505C48.07 4.61763 48.6164 3.90597 48.9307 3.09802C48.9307 3.09802 48.5528 3.35948 48.7114 3.08857Z" fill="#E4E3E1"/>
</g>
<g style="mix-blend-mode:multiply">
<path d="M29.4578 2.63525C29.5017 3.76232 29.8713 4.85732 30.5276 5.80428C31.1772 6.7292 32.0648 7.48734 33.1093 8.00937C34.1564 8.52856 35.2853 8.88903 36.4537 9.07727C37.6306 9.27635 38.8248 9.37337 40.0209 9.36708C41.2151 9.38506 42.4084 9.29646 43.5846 9.10247C44.7531 8.9186 45.8817 8.55789 46.9257 8.03457C47.9657 7.50821 48.8467 6.74545 49.4871 5.81688C50.135 4.86206 50.5017 3.76461 50.5502 2.63525C50.6002 3.20658 50.5536 3.78171 50.4118 4.33947C50.2771 4.90466 50.0614 5.45034 49.7706 5.96179C49.1645 6.99372 48.2745 7.85605 47.1923 8.45984C46.116 9.05691 44.9362 9.47375 43.7061 9.69154C42.4906 9.90938 41.2551 10.0149 40.0175 10.0066C38.7781 10.0074 37.5416 9.8956 36.3255 9.67264C35.0972 9.4506 33.9183 9.03516 32.8393 8.44409C31.7588 7.8463 30.8661 6.99341 30.2509 5.97124C29.9569 5.46015 29.7378 4.91449 29.5995 4.34892C29.4537 3.78855 29.4059 3.20987 29.4578 2.63525Z" fill="#E4E3E1"/>
</g>
<rect x="24" y="24" width="32" height="32" fill="url(#paint0_linear)"/>
<defs>
<linearGradient id="paint0_linear" x1="40" y1="24" x2="40" y2="56" gradientUnits="userSpaceOnUse">
<stop stop-color="#8586AD" stop-opacity="0.8"/>
<stop offset="1" stop-color="#8586AD" stop-opacity="0.5"/>
</linearGradient>
</defs>
</svg>
