<svg width="24" height="24" viewBox="0 0 24 24" fill="none" xmlns="http://www.w3.org/2000/svg">
<path d="M20 10.3636C20 16.0909 12.5 21 12.5 21C12.5 21 5 16.0909 5 10.3636C5 8.41068 5.79018 6.53771 7.1967 5.15676C8.60322 3.77581 10.5109 3 12.5 3C14.4891 3 16.3968 3.77581 17.8033 5.15676C19.2098 6.53771 20 8.41068 20 10.3636Z" stroke="#8586AD" stroke-width="1.5" stroke-linecap="round" stroke-linejoin="round"/>
<path d="M12.5 12.8182C13.8807 12.8182 15 11.7192 15 10.3636C15 9.00803 13.8807 7.90909 12.5 7.90909C11.1193 7.90909 10 9.00803 10 10.3636C10 11.7192 11.1193 12.8182 12.5 12.8182Z" stroke="#8586AD" stroke-width="1.5" stroke-linecap="round" stroke-linejoin="round"/>
</svg>
