<svg width="24" height="24" viewBox="0 0 24 24" fill="none" xmlns="http://www.w3.org/2000/svg">
<path d="M16.0053 15.9975L12.0053 11.9975M12.0053 11.9975L8.00533 15.9975M12.0053 11.9975V20.9975M20.3953 18.3875C21.3707 17.8558 22.1412 17.0144 22.5852 15.9962C23.0292 14.9779 23.1215 13.8408 22.8475 12.7642C22.5735 11.6877 21.9488 10.7331 21.072 10.051C20.1952 9.36892 19.1162 8.99828 18.0053 8.99754H16.7453C16.4426 7.82678 15.8785 6.73988 15.0953 5.81854C14.3121 4.89719 13.3302 4.16539 12.2234 3.67815C11.1167 3.19091 9.91388 2.9609 8.70545 3.00542C7.49701 3.04995 6.3144 3.36784 5.24651 3.93521C4.17862 4.50257 3.25324 5.30465 2.53995 6.28112C1.82666 7.2576 1.34402 8.38308 1.12831 9.57294C0.912601 10.7628 0.969437 11.9861 1.29454 13.1508C1.61965 14.3155 2.20457 15.3914 3.00533 16.2975" stroke="#8586AD" stroke-width="1.5" stroke-linecap="round" stroke-linejoin="round"/>
</svg>
