<svg width="48" height="40" viewBox="0 0 48 40" fill="none" xmlns="http://www.w3.org/2000/svg">
<path d="M3.00536 24.9852C3.00737 24.9852 3.02346 24.9852 3.02547 24.9852L45.0021 24.8111C45.6778 24.809 46.1726 24.6329 46.5165 24.2724C46.8563 23.9201 47.0092 23.4281 46.9871 22.772C46.7578 15.5796 43.7109 9.63041 37.5749 4.50944C37.3456 4.37175 37.0802 4.20368 36.7845 4.01537C35.9962 3.51522 35.0167 2.89155 33.9669 2.3671C30.8195 0.797809 27.4448 0 23.9414 0C17.4233 0 11.2028 2.83485 6.87682 7.7756C3.06771 12.1251 1.09276 17.2238 1.0083 22.936C1.00226 23.3714 1.04651 24.0031 1.50103 24.4688C1.95554 24.9326 2.57699 24.9852 3.00536 24.9852ZM8.08149 8.85082C12.1038 4.25836 17.8838 1.62397 23.9414 1.62397C27.1954 1.62397 30.3288 2.36305 33.253 3.82098C34.2304 4.30898 35.1716 4.90632 35.9258 5.38622C36.2335 5.58264 36.511 5.75881 36.6478 5.82968C42.3876 10.6287 45.161 16.0291 45.3802 22.8246C45.3862 23.0413 45.3581 23.1324 45.3621 23.1405C45.3379 23.1527 45.2394 23.1891 44.992 23.1891L42.1382 23.2013L42.1503 21.0933C42.1523 20.7572 41.8828 20.4839 41.551 20.4839C41.191 20.498 40.9456 20.7491 40.9436 21.0873L40.9315 23.2053L39.4393 23.2114L39.4473 21.7676C39.4493 21.4315 39.1818 21.1581 38.848 21.1561C38.5181 21.1683 38.2426 21.4214 38.2406 21.7595L38.2326 23.2154L36.7363 23.2215L36.7463 21.1622C36.7483 20.8261 36.4788 20.5527 36.145 20.5527H36.147C35.8152 20.5527 35.5457 20.822 35.5437 21.1561L35.5336 23.2256L34.0413 23.2316L34.0494 21.8365C34.0514 21.5004 33.7839 21.227 33.4501 21.225C33.4481 21.225 33.4481 21.225 33.446 21.225C33.1142 21.225 32.8447 21.4943 32.8427 21.8284L32.8367 23.2418L31.3424 23.2478L31.3504 21.2351C31.3524 20.899 31.0829 20.6256 30.7491 20.6256H30.7471C30.4152 20.6256 30.1458 20.8949 30.1437 21.229L30.1357 23.2519L28.6434 23.258L28.6515 21.9094C28.6535 21.5732 28.384 21.3019 28.0522 21.2999C28.0501 21.2999 28.0501 21.2999 28.0481 21.2999C27.7163 21.2999 27.4468 21.5692 27.4448 21.9033L27.4367 23.262L25.9405 23.2681L25.9485 21.3039C25.9505 20.9678 25.681 20.6944 25.3472 20.6944H25.3452C25.0133 20.6944 24.7438 20.9638 24.7418 21.2979L24.7338 23.2742L23.2415 23.2802L23.2495 21.9803C23.2516 21.6441 22.9821 21.3708 22.6502 21.3687C22.6482 21.3687 22.6482 21.3687 22.6462 21.3687C22.3144 21.3687 22.0449 21.638 22.0429 21.9722L22.0348 23.2863L20.5405 23.2924L20.5486 21.3748C20.5506 21.0387 20.2811 20.7673 19.9472 20.7653H19.9493C19.6174 20.7653 19.3459 21.0346 19.3459 21.3708L19.3379 23.2964L17.8456 23.3025L17.8536 22.0491C17.8557 21.713 17.5882 21.4396 17.2543 21.4376C17.2523 21.4376 17.2523 21.4376 17.2503 21.4376C16.9185 21.4376 16.649 21.7069 16.647 22.041L16.6389 23.3066L15.1446 23.3126L15.1527 21.4416C15.1547 21.1055 14.8852 20.8342 14.5513 20.8321C14.2195 20.8321 13.948 21.1014 13.948 21.4376L13.94 23.3167L12.4477 23.3228L12.4537 22.1159C12.4557 21.7798 12.1862 21.5064 11.8544 21.5064C11.4763 21.5064 11.249 21.7737 11.247 22.1098L11.241 23.3268L9.74471 23.3329L9.75275 21.5105C9.75476 21.1743 9.48527 20.903 9.15142 20.901C8.81958 20.901 8.54808 21.1703 8.54808 21.5064L8.54204 23.343L7.04977 23.3491L7.05581 22.1908C7.05782 21.8547 6.78832 21.5813 6.45447 21.5813H6.45045C6.11861 21.5813 5.84912 21.8507 5.84711 22.1848L5.84108 23.3552L3.01341 23.3673L3.00134 24.1773V23.3673C2.78212 23.3673 2.68157 23.339 2.65743 23.339C2.65542 23.339 2.65542 23.339 2.65341 23.339C2.64336 23.3106 2.61118 23.2094 2.6152 22.9603C2.69766 17.6449 4.53383 12.8966 8.08149 8.85082Z" fill="#45469B"/>
<path d="M15.2418 19.1432C15.2438 19.1432 15.2559 19.1432 15.2559 19.1432L32.6583 19.0743C33.1209 19.0723 33.7906 19.0116 34.2511 18.4993C34.591 18.1186 34.7238 17.5901 34.6554 16.8814C34.5971 16.2861 34.4965 15.5065 34.2471 14.7573C33.4567 12.38 31.886 10.5495 29.4425 9.16045C27.8175 8.23507 25.9451 7.74707 24.0225 7.74707C20.5814 7.74707 17.2891 9.30624 15.2177 11.9204C14.0009 13.4775 13.3433 15.2048 13.2689 17.0555C13.2407 17.742 13.3956 18.2522 13.7395 18.6127C14.0794 18.969 14.5721 19.1432 15.2418 19.1432ZM16.4787 12.9268C18.2465 10.6973 21.0661 9.36901 24.0225 9.36901C25.6676 9.36901 27.2684 9.78412 28.6521 10.5718C30.7316 11.7543 32.065 13.2933 32.7207 15.2716C32.9198 15.8689 33.0042 16.5331 33.0525 17.0434C33.0766 17.2843 33.0545 17.3917 33.0626 17.4058C33.0284 17.42 32.9198 17.4564 32.6503 17.4564L15.2519 17.5253L15.2418 18.3353V17.5253C15.0306 17.5253 14.9341 17.4969 14.912 17.4969C14.91 17.4969 14.91 17.4969 14.908 17.4969C14.8979 17.4706 14.8657 17.3674 14.8758 17.1203C14.9361 15.5976 15.463 14.2247 16.4787 12.9268Z" fill="#45469B"/>
<path d="M1.51441 40H46.4836C46.8858 40 47.2659 39.8421 47.5575 39.5505C47.8431 39.2609 48 38.8782 48 38.4733V28.0511C48 27.2088 47.3182 26.5264 46.4836 26.5264H1.51642C1.12425 26.5264 0.732075 26.6924 0.446492 26.982C0.16091 27.2715 -0.00199274 27.6623 1.84042e-05 28.0511V38.4733C-0.00199274 39.3156 0.679785 40 1.51441 40ZM3.14947 28.1422L3.1555 29.7682C3.1555 30.1044 3.42701 30.3737 3.75885 30.3737H3.76086C4.09471 30.3737 4.3642 30.1003 4.36219 29.7642L4.35616 28.1382L5.85245 28.1341L5.85647 29.1628C5.85848 29.4969 6.12797 29.7662 6.45981 29.7662H6.46182C6.79567 29.7662 7.06517 29.4928 7.06316 29.1567L7.05913 28.1321L8.5514 28.1281L8.55744 29.8371C8.55744 30.1732 8.82894 30.4425 9.16078 30.4425H9.16279C9.49664 30.4425 9.76613 30.1692 9.76412 29.833L9.75809 28.126L11.2524 28.122L11.2584 29.2316C11.2604 29.5657 11.5299 29.835 11.8617 29.835C11.8617 29.835 11.8638 29.835 11.8658 29.835C12.1976 29.835 12.4671 29.5597 12.4651 29.2256L12.455 28.124L13.9493 28.12L13.9553 29.9079C13.9553 30.2441 14.2269 30.5134 14.5587 30.5134H14.5607C14.8946 30.5134 15.164 30.24 15.162 29.9039L15.156 28.1159L16.6503 28.1119L16.6563 29.3025C16.6583 29.6366 16.9278 29.9059 17.2597 29.9059C17.2597 29.9059 17.2617 29.9059 17.2637 29.9059C17.5955 29.9059 17.865 29.6305 17.863 29.2964L17.857 28.1078L19.3492 28.1038L19.3573 29.9748C19.3593 30.3089 19.6288 30.5782 19.9606 30.5782H19.9626C20.2965 30.5782 20.566 30.3048 20.564 29.9687L20.5559 28.1017L22.0522 28.0977L22.0603 29.3693C22.0623 29.7034 22.3318 29.9727 22.6636 29.9727C23.0095 29.9039 23.269 29.6994 23.2669 29.3612L23.2529 28.1017L24.7451 28.0977L24.7532 30.0497C24.7552 30.3838 25.0247 30.6531 25.3565 30.6531H25.3585C25.6924 30.6531 25.9619 30.3797 25.9599 30.0436L25.9518 28.0957L27.4461 28.0916L27.4541 29.4463C27.4562 29.7804 27.7257 30.0497 28.0575 30.0497C28.0595 30.0497 28.0595 30.0497 28.0615 30.0497C28.3954 30.0477 28.6628 29.7743 28.6608 29.4382L28.6528 28.0896L30.1451 28.0855L30.1531 30.1185C30.1551 30.4526 30.4246 30.722 30.7564 30.722H30.7585C31.0923 30.722 31.3618 30.4486 31.3598 30.1125L31.3517 28.0835L32.846 28.0795L32.8561 29.5151C32.8581 29.8492 33.1276 30.1185 33.4594 30.1185C33.4614 30.1185 33.4614 30.1185 33.4634 30.1185C33.7973 30.1165 34.0648 29.8431 34.0628 29.507L34.0527 28.0774L35.545 28.0734L35.555 30.1874C35.557 30.5215 35.8265 30.7908 36.1584 30.7908H36.1604C36.4942 30.7908 36.7637 30.5154 36.7617 30.1813L36.7517 28.0714L38.248 28.0673L38.258 29.5819C38.26 29.916 38.5295 30.1854 38.8614 30.1854C38.8634 30.1854 38.8634 30.1854 38.8654 30.1854C39.1992 30.1833 39.4667 29.91 39.4647 29.5738L39.4546 28.0633L40.9469 28.0592L40.957 30.2542C40.959 30.5883 41.2285 30.8576 41.5603 30.8576H41.5623C41.8962 30.8576 42.1657 30.5822 42.1637 30.2481L42.1536 28.0572L43.6479 28.0531L43.6579 29.6508C43.6599 29.9849 43.9294 30.2542 44.2613 30.2542C44.2633 30.2542 44.2633 30.2542 44.2633 30.2542C44.5992 30.2522 44.8666 29.9788 44.8646 29.6427L44.8546 28.0511L46.3971 28.0471L46.4273 38.3761L1.61899 38.4692L1.51441 28.1463L3.14947 28.1422Z" fill="#45469B"/>
</svg>
