<svg width="32" height="32" viewBox="0 0 32 32" fill="none" xmlns="http://www.w3.org/2000/svg">
<path d="M22.2351 0H3.33847C1.5082 0 0.0191267 1.42446 0.0191267 3.17541C0.0191267 26.3427 -0.122246 24.9169 0.363708 25.3818C7.43856 32.1499 6.98999 31.7569 7.23741 31.8739C7.59125 32.0438 6.62301 31.9928 22.2351 31.9928C24.0653 31.9928 25.5544 30.5684 25.5544 28.8174V3.17541C25.5545 1.42446 24.0654 0 22.2351 0ZM6.58607 28.155L4.03102 25.7106H6.58607V28.155ZM23.2044 28.8174C23.2044 29.3287 22.7696 29.7446 22.2351 29.7446H8.93616V24.5865C8.93616 23.9656 8.41003 23.4623 7.76111 23.4623H2.36921V3.17541C2.36921 2.66415 2.80398 2.24823 3.33847 2.24823H22.2351C22.7696 2.24823 23.2044 2.66415 23.2044 3.17541V28.8174ZM31 3.17541V28.8175C31 30.5684 29.5109 31.9929 27.6807 31.9929C27.0317 31.9929 26.5056 31.4896 26.5056 30.8688C26.5056 30.2479 27.0317 29.7447 27.6807 29.7447C28.2151 29.7447 28.6499 29.3287 28.6499 28.8175V3.17541C28.6499 2.66415 28.2151 2.24823 27.6807 2.24823C27.0317 2.24823 26.5056 1.74497 26.5056 1.12411C26.5056 0.503251 27.0317 0 27.6807 0C29.5109 0 31 1.42446 31 3.17541Z" fill="#45469B"/>
</svg>
