<svg width="32" height="32" viewBox="0 0 32 32" fill="none" xmlns="http://www.w3.org/2000/svg">
<path d="M25.7527 0H7.26604C5.47548 0 4.01871 1.42446 4.01871 3.17541C4.01871 26.3427 3.88041 24.9169 4.35582 25.3818C11.2772 32.1499 10.8383 31.7569 11.0804 31.8739C11.4266 32.0438 10.4793 31.9928 25.7527 31.9928C27.5432 31.9928 29 30.5684 29 28.8174V3.17541C29.0001 1.42446 27.5433 0 25.7527 0ZM10.4432 28.155L7.94356 25.7106H10.4432V28.155ZM26.701 28.8174C26.701 29.3287 26.2756 29.7446 25.7527 29.7446H12.7423V24.5865C12.7423 23.9656 12.2276 23.4623 11.5927 23.4623H6.31781V3.17541C6.31781 2.66415 6.74314 2.24823 7.26604 2.24823H25.7527C26.2756 2.24823 26.701 2.66415 26.701 3.17541V28.8174Z" fill="#45469B"/>
</svg>
