<svg width="54" height="45" viewBox="0 0 54 45" fill="none" xmlns="http://www.w3.org/2000/svg">
<path d="M21.8352 0C15.0231 0 9.67938 2.08915 5.8091 6.31826C1.93041 10.5472 0 17.1444 0 26.1321V44.8H22.4398H22.4557V24.636H11.6178C11.6178 19.6982 12.4241 16.0268 14.0053 13.6231C15.5859 11.2193 18.1929 10.0104 21.8352 10.0104V0ZM52.6301 0C49.2242 0 46.1913 0.501148 43.527 1.52787C40.8625 2.55459 38.5735 4.12749 36.6993 6.27047C34.8253 8.42159 33.3888 11.1501 32.3867 14.4665C31.3925 17.7911 30.8906 21.6668 30.8906 26.1321V44.8H53.426V24.636H42.6038C42.6038 19.6982 43.3944 16.0268 44.9753 13.6231C46.5559 11.2193 49.1101 10.0104 52.6301 10.0104V0Z" fill="#45469B" fill-opacity="0.15"/>
</svg>
