<svg width="32" height="32" viewBox="0 0 32 32" fill="none" xmlns="http://www.w3.org/2000/svg">
<path d="M12.03 0H10.03V2H12.03V0Z" fill="#52537A"/>
<path d="M16.03 0H14.03V2H16.03V0Z" fill="#52537A"/>
<path d="M27 0H18.029V2H27C28.6569 2 30 3.34312 30 5V27C30 28.6569 28.6569 30 27 30H5C3.34312 30 2 28.6569 2 27V5C2 3.34312 3.34312 2 5 2H8.029V0H5C2.23994 0.0033125 0.0033125 2.23994 0 5V27C0.0033125 29.7601 2.23994 31.9967 5 32H27C29.7601 31.9967 31.9967 29.7601 32 27V5C31.9967 2.23994 29.7601 0.0033125 27 0Z" fill="#52537A"/>
</svg>
