<svg width="107" height="80" viewBox="0 0 107 80" fill="none" xmlns="http://www.w3.org/2000/svg">
<path fill-rule="evenodd" clip-rule="evenodd" d="M105.688 22.6002C104.379 20.4227 103.355 18.5033 102.061 16.3626C101.945 16.1698 99.63 12.5123 98.579 10.9444C97.835 9.83871 97.087 8.50611 96.112 7.42301C95.79 7.10341 95.447 6.80232 95.085 6.52142C94.73 6.28012 94.343 6.08282 93.934 5.93452C92.986 5.58582 91.428 5.18032 90.161 4.85142C87.405 4.13132 84.677 2.98011 82.18 1.87161C80.688 1.20811 79.643 0.408616 78.118 0.110816C77.624 -0.0287837 77.098 -0.036682 76.599 0.088218L76.423 0.116515C74.749 0.221415 72.874 0.272514 71 0.272514C69.125 0.272514 67.254 0.221415 65.58 0.116515L65.404 0.088218C64.905 -0.036682 64.379 -0.0287837 63.885 0.110816C62.366 0.408616 61.315 1.20811 59.823 1.87161C57.326 2.98011 54.595 4.13982 51.839 4.85142C50.575 5.18032 49.017 5.58582 48.069 5.93452C47.663 6.08582 47.28 6.28591 46.93 6.52991C46.568 6.81081 46.225 7.11192 45.903 7.43152C44.928 8.51462 44.18 9.84722 43.436 10.9529C42.382 12.5208 40.07 16.1783 39.954 16.3711C38.657 18.5033 37.633 20.4227 36.327 22.6087C35.774 23.5274 34.8505 24.5679 35.0206 25.3164C35.1907 26.0649 38.119 27.3011 38.214 27.3493C39.559 28.044 40.617 28.6167 41.841 29.2461C42.321 29.4928 45.632 31.4434 46.483 31.2762C47.334 31.1089 47.343 30.0768 47.935 29.6516C48.591 29.1695 49.173 28.6057 49.664 27.9759C49.864 27.7491 50.423 26.8787 50.548 26.6717C50.751 26.3343 50.867 25.8013 51.225 25.5376C51.326 25.4667 51.435 25.4582 51.465 25.6113C51.821 27.2784 51.708 28.8038 51.708 30.4483V57.264C51.708 60.95 52.012 64.542 51.708 67.962C51.685 68.326 51.636 68.689 51.563 69.048C51.496 69.331 51.198 69.555 51.417 69.995C52.52 72.104 63.22 71.872 64.043 71.891C66.394 71.948 68.703 71.991 71 71.999C73.297 72.008 75.606 71.948 77.96 71.891C78.78 71.872 89.483 72.104 90.583 69.995C90.802 69.555 90.507 69.337 90.44 69.048C90.364 68.689 90.315 68.326 90.294 67.962C89.991 64.542 90.294 60.944 90.294 57.264V30.4426C90.294 28.7981 90.179 27.2728 90.534 25.6056C90.568 25.4525 90.677 25.461 90.777 25.5319C91.136 25.7814 91.251 26.3144 91.455 26.666C91.579 26.873 92.138 27.7434 92.339 27.9702C92.829 28.6014 93.41 29.1654 94.068 29.6459C94.657 30.0712 94.703 31.1117 95.517 31.2705C96.331 31.4293 99.682 29.4871 100.162 29.2404C101.377 28.611 102.44 28.0383 103.789 27.3436C103.883 27.2954 106.827 26.0593 106.982 25.3107C107.137 24.5622 106.241 23.5189 105.688 22.6002Z" fill="white"/>
<g style="mix-blend-mode:multiply">
<g style="mix-blend-mode:multiply">
<path fill-rule="evenodd" clip-rule="evenodd" d="M105.688 22.6002C104.379 20.4227 103.355 18.5033 102.061 16.3626C101.945 16.1698 99.63 12.5123 98.579 10.9444C97.835 9.83871 97.087 8.50611 96.112 7.42301C95.79 7.10341 95.447 6.80232 95.085 6.52142C94.73 6.28012 94.343 6.08282 93.934 5.93452C92.986 5.58582 91.428 5.18032 90.161 4.85142C87.405 4.13132 84.677 2.98011 82.18 1.87161C80.688 1.20811 79.643 0.408616 78.118 0.110816C77.624 -0.0287837 77.098 -0.036682 76.599 0.088218L76.423 0.116515C74.749 0.221415 72.874 0.272514 71 0.272514C69.125 0.272514 67.254 0.221415 65.58 0.116515L65.404 0.088218C64.905 -0.036682 64.379 -0.0287837 63.885 0.110816C62.366 0.408616 61.315 1.20811 59.823 1.87161C57.326 2.98011 54.595 4.13982 51.839 4.85142C50.575 5.18032 49.017 5.58582 48.069 5.93452C47.663 6.08582 47.28 6.28591 46.93 6.52991C46.568 6.81081 46.225 7.11192 45.903 7.43152C44.928 8.51462 44.18 9.84722 43.436 10.9529C42.382 12.5208 40.07 16.1783 39.954 16.3711C38.657 18.5033 37.633 20.4227 36.327 22.6087C35.774 23.5274 34.8505 24.5679 35.0206 25.3164C35.1907 26.0649 38.119 27.3011 38.214 27.3493C39.559 28.044 40.617 28.6167 41.841 29.2461C42.321 29.4928 45.632 31.4434 46.483 31.2762C47.334 31.1089 47.343 30.0768 47.935 29.6516C48.591 29.1695 49.173 28.6057 49.664 27.9759C49.864 27.7491 50.423 26.8787 50.548 26.6717C50.751 26.3343 50.867 25.8013 51.225 25.5376C51.326 25.4667 51.435 25.4582 51.465 25.6113C51.821 27.2784 51.708 28.8038 51.708 30.4483V57.264C51.708 60.95 52.012 64.542 51.708 67.962C51.685 68.326 51.636 68.689 51.563 69.048C51.496 69.331 51.198 69.555 51.417 69.995C52.52 72.104 63.22 71.872 64.043 71.891C66.394 71.948 68.703 71.991 71 71.999C73.297 72.008 75.606 71.948 77.96 71.891C78.78 71.872 89.483 72.104 90.583 69.995C90.802 69.555 90.507 69.337 90.44 69.048C90.364 68.689 90.315 68.326 90.294 67.962C89.991 64.542 90.294 60.944 90.294 57.264V30.4426C90.294 28.7981 90.179 27.2728 90.534 25.6056C90.568 25.4525 90.677 25.461 90.777 25.5319C91.136 25.7814 91.251 26.3144 91.455 26.666C91.579 26.873 92.138 27.7434 92.339 27.9702C92.829 28.6014 93.41 29.1654 94.068 29.6459C94.657 30.0712 94.703 31.1117 95.517 31.2705C96.331 31.4293 99.682 29.4871 100.162 29.2404C101.377 28.611 102.44 28.0383 103.789 27.3436C103.883 27.2954 106.827 26.0593 106.982 25.3107C107.137 24.5622 106.241 23.5189 105.688 22.6002ZM106.56 25.1718C106.305 25.7389 104.865 26.1982 103.947 26.6632C101.289 28.0128 98.695 29.4814 95.945 30.6864C95.678 30.8027 95.492 30.8168 95.338 30.6184C95.112 30.2748 94.909 29.9188 94.73 29.5523C94.672 29.4525 94.605 29.3576 94.529 29.2688C94.358 29.1311 94.199 28.9813 94.052 28.8208C93.527 28.2226 92.944 27.6867 92.6 27.0601C91.689 25.4157 91.47 22.4244 92.166 20.6949C92.819 19.0703 94.183 14.6671 93.894 13.8903C93.858 13.7882 93.767 13.757 93.74 13.8903C93.275 16.1046 92.941 18.2793 91.874 20.4114C91.391 21.3839 90.774 22.2146 90.425 23.2467C89.182 26.9325 89.699 32.1324 89.699 37.06V57.511C89.699 61.061 89.419 64.63 89.699 67.803C89.743 68.451 89.89 69.089 90.133 69.697C88.918 70.732 86.928 70.987 84.765 71.188C82.602 71.39 76.423 71.412 70.985 71.392C65.547 71.373 59.352 71.392 57.207 71.188C55.062 70.984 53.054 70.732 51.836 69.697C52.081 69.089 52.228 68.451 52.274 67.803C52.553 64.63 52.274 61.061 52.274 57.511V37.091C52.274 32.1636 52.79 26.958 51.547 23.2779C51.198 22.2373 50.581 21.4066 50.095 20.4426C49.032 18.302 48.698 16.1273 48.233 13.9215C48.206 13.7939 48.114 13.8251 48.078 13.9215C47.774 14.687 49.15 19.0902 49.807 20.7261C50.502 22.4556 50.271 25.4468 49.372 27.0913C49.029 27.7151 48.446 28.2538 47.92 28.852C47.773 29.0118 47.613 29.1615 47.443 29.3C47.366 29.3887 47.298 29.4836 47.24 29.5835C47.067 29.9502 46.871 30.3062 46.65 30.6496C46.507 30.848 46.322 30.8339 46.043 30.7176C43.29 29.5126 40.699 28.044 38.04 26.6944C37.129 26.2294 35.6829 25.7786 35.4277 25.203C35.2728 24.8571 36.081 23.9073 36.442 23.309C36.871 22.6002 40.665 16.2209 40.796 15.994C41.65 14.5764 42.859 12.7618 43.834 11.2563C43.962 11.0607 45.079 9.18661 45.578 8.54581C46.07 7.92771 46.656 7.38042 47.319 6.92122C48.464 6.28612 50.393 5.80412 52.252 5.29662C53.584 4.91552 54.892 4.46301 56.168 3.94131C56.776 3.70031 57.426 3.39412 58.055 3.13042C59.021 2.72502 59.917 2.36212 60.813 1.91122C61.102 1.76662 61.421 1.62771 61.682 1.50581C62.378 1.16841 62.873 0.848015 63.715 0.692115C64.365 0.600815 65.027 0.600815 65.677 0.692115L65.869 0.711913C67.479 0.805513 69.211 0.853713 70.963 0.853713C72.716 0.853713 74.448 0.805513 76.061 0.711913L76.253 0.692115C76.902 0.600815 77.563 0.600815 78.212 0.692115C79.057 0.848015 79.552 1.16841 80.245 1.50581C80.5 1.62771 80.828 1.76662 81.117 1.91122C82.01 2.36212 82.906 2.72502 83.872 3.13042C84.504 3.39412 85.145 3.69751 85.759 3.94131C87.036 4.46301 88.344 4.91552 89.678 5.29662C91.537 5.80412 93.463 6.28612 94.611 6.92122C95.273 7.38112 95.859 7.92831 96.352 8.54581C96.847 9.18661 97.965 11.0607 98.093 11.2563C99.077 12.7618 100.289 14.5877 101.131 15.994C101.265 16.2124 105.059 22.6002 105.485 23.309C105.907 23.8761 106.712 24.8259 106.56 25.1718Z" fill="#4E4C42"/>
</g>
</g>
<path d="M87 14H55V46H87V14Z" fill="url(#paint0_linear)"/>
<path fill-rule="evenodd" clip-rule="evenodd" d="M78.516 25.1081C77.062 22.6888 75.924 20.5562 74.487 18.1778C74.355 17.9636 71.787 13.9 70.616 12.1579C69.792 10.9294 68.962 9.44881 67.875 8.24551C67.518 7.88961 67.137 7.55501 66.735 7.24371C66.342 6.97491 65.913 6.75571 65.459 6.59171C64.403 6.20421 62.675 5.75371 61.268 5.38831C58.207 4.58821 55.193 3.30921 52.402 2.07751C50.742 1.34041 49.584 0.45211 47.887 0.12131C47.343 -0.0313897 46.765 -0.0400895 46.216 0.0961105L46.02 0.127612C44.158 0.244212 42.079 0.300914 39.996 0.300914C37.914 0.300914 35.8353 0.244212 33.9724 0.127612L33.7767 0.0961105C33.2281 -0.0400895 32.6498 -0.0313897 32.1062 0.12131C30.4188 0.45211 29.2511 1.34041 27.5907 2.07751C24.8166 3.30921 21.7861 4.59761 18.7252 5.38831C17.3179 5.75371 15.59 6.20421 14.5337 6.59171C14.0796 6.75571 13.6507 6.97491 13.258 7.24371C12.8557 7.55501 12.4747 7.88961 12.1173 8.24551C11.0307 9.44881 10.2038 10.9294 9.37702 12.1579C8.19922 13.9094 5.62092 17.9731 5.50282 18.1873C4.06512 20.5562 2.92781 22.6888 1.47331 25.1176C0.862414 26.1382 -0.163481 27.2943 0.0221193 28.1259C0.207719 28.9576 3.46782 30.331 3.56902 30.3846C5.06742 31.1564 6.24182 31.7927 7.59852 32.492C8.13512 32.7661 11.8102 34.9334 12.7585 34.7475C13.7069 34.5616 13.7136 33.415 14.3717 32.9425C15.1001 32.4069 15.7462 31.7805 16.2919 31.0808C16.5147 30.8287 17.1323 29.8617 17.2706 29.6317C17.4967 29.2568 17.6284 28.6646 18.0232 28.3716C18.1379 28.2929 18.2594 28.2834 18.2932 28.4536C18.688 30.3058 18.5598 32.0006 18.5598 33.8277V63.622C18.5598 67.717 18.8973 71.708 18.5598 75.507C18.5359 75.912 18.4829 76.315 18.4012 76.714C18.3236 77.029 17.9962 77.277 18.2392 77.766C19.4575 80.128 31.3502 79.857 32.2817 79.879C34.8937 79.942 37.459 79.99 40.01 79.999C42.561 80.009 45.126 79.942 47.742 79.879C48.653 79.857 60.542 80.116 61.764 77.772C62.007 77.284 61.679 77.041 61.602 76.72C61.52 76.321 61.467 75.918 61.443 75.513C61.106 71.714 61.443 67.717 61.443 63.628V33.8214C61.443 31.9943 61.315 30.2995 61.71 28.4473C61.747 28.2771 61.868 28.2866 61.98 28.3653C62.375 28.6426 62.506 29.2348 62.732 29.6254C62.871 29.8554 63.492 30.8224 63.711 31.0745C64.257 31.7751 64.904 32.4017 65.635 32.9362C66.289 33.4087 66.337 34.5648 67.244 34.7412C68.152 34.9176 71.868 32.7598 72.404 32.4857C73.754 31.7864 74.936 31.1501 76.434 30.3783C76.539 30.3247 79.809 28.9513 79.981 28.1196C80.153 27.288 79.127 26.1288 78.516 25.1081Z" fill="white"/>
<g style="mix-blend-mode:multiply">
<g style="mix-blend-mode:multiply">
<path fill-rule="evenodd" clip-rule="evenodd" d="M14.535 16.2878C15.1391 18.2504 15.7937 21.1485 16.5598 23.0953C17.3259 25.042 17.0357 28.504 16.0334 30.3406C15.6554 31.0304 15.0209 31.4337 14.4303 32.0983C14.2045 32.3506 13.9473 32.5769 13.6643 32.7725C14.0355 32.1204 14.4438 31.5723 14.7914 30.9674C15.274 30.1358 15.9659 29.2758 15.76 27.8173C15.571 26.4754 14.3156 25.2972 13.6643 24.0561C13.3268 23.426 13.3538 22.1187 13.3438 20.9059C13.823 22.1093 13.8195 23.741 14.9973 24.3175C15.1188 24.3742 15.1222 24.2955 15.1255 24.264C15.3685 21.747 14.0862 18.9465 14.535 16.2878Z" fill="#E4E3E1"/>
</g>
</g>
<g style="mix-blend-mode:multiply">
<g style="mix-blend-mode:multiply">
<path fill-rule="evenodd" clip-rule="evenodd" d="M65.4449 16.2878C64.8409 18.2504 64.1899 21.1485 63.4209 23.0953C62.6509 25.042 62.9449 28.504 63.9469 30.3406C64.3249 31.0304 64.9599 31.4337 65.5529 32.0983C65.7769 32.3514 66.0329 32.5778 66.3159 32.7725C65.9449 32.1204 65.5399 31.5723 65.1889 30.9674C64.7059 30.1358 64.0149 29.2758 64.2199 27.8173C64.4089 26.4754 65.6649 25.2972 66.3159 24.0561C66.6539 23.426 66.6269 22.1187 66.6539 20.9059C66.1709 22.1093 66.1739 23.741 64.9969 24.3175C64.8749 24.3742 64.8719 24.2955 64.8679 24.264C64.6119 21.747 65.8939 18.9465 65.4449 16.2878Z" fill="#E4E3E1"/>
</g>
</g>
<g style="mix-blend-mode:multiply">
<g style="mix-blend-mode:multiply">
<path fill-rule="evenodd" clip-rule="evenodd" d="M78.516 25.1081C77.062 22.6888 75.924 20.5562 74.487 18.1778C74.355 17.9636 71.787 13.9 70.616 12.1579C69.792 10.9294 68.962 9.44881 67.875 8.24551C67.518 7.88961 67.137 7.55501 66.735 7.24371C66.342 6.97491 65.913 6.75571 65.459 6.59171C64.403 6.20421 62.675 5.75371 61.268 5.38831C58.207 4.58821 55.193 3.30921 52.402 2.07751C50.742 1.34041 49.584 0.45211 47.887 0.12131C47.343 -0.0313897 46.765 -0.0400895 46.216 0.0961105L46.02 0.127612C44.158 0.244212 42.079 0.300914 39.996 0.300914C37.914 0.300914 35.8353 0.244212 33.9724 0.127612L33.7767 0.0961105C33.2281 -0.0400895 32.6498 -0.0313897 32.1062 0.12131C30.4188 0.45211 29.2511 1.34041 27.5907 2.07751C24.8166 3.30921 21.7861 4.59761 18.7252 5.38831C17.3179 5.75371 15.59 6.20421 14.5337 6.59171C14.0796 6.75571 13.6507 6.97491 13.258 7.24371C12.8557 7.55501 12.4747 7.88961 12.1173 8.24551C11.0307 9.44881 10.2038 10.9294 9.37702 12.1579C8.19922 13.9094 5.62092 17.9731 5.50282 18.1873C4.06512 20.5562 2.92781 22.6888 1.47331 25.1176C0.862414 26.1382 -0.163481 27.2943 0.0221193 28.1259C0.207719 28.9576 3.46782 30.331 3.56902 30.3846C5.06742 31.1564 6.24182 31.7927 7.59852 32.492C8.13512 32.7661 11.8102 34.9334 12.7585 34.7475C13.7069 34.5616 13.7136 33.415 14.3717 32.9425C15.1001 32.4069 15.7462 31.7805 16.2919 31.0808C16.5147 30.8287 17.1323 29.8617 17.2706 29.6317C17.4967 29.2568 17.6284 28.6646 18.0232 28.3716C18.1379 28.2929 18.2594 28.2834 18.2932 28.4536C18.688 30.3058 18.5598 32.0006 18.5598 33.8277V63.622C18.5598 67.717 18.8973 71.708 18.5598 75.507C18.5359 75.912 18.4829 76.315 18.4012 76.714C18.3236 77.029 17.9962 77.277 18.2392 77.766C19.4575 80.128 31.3502 79.857 32.2817 79.879C34.8937 79.942 37.459 79.99 40.01 79.999C42.561 80.009 45.126 79.942 47.742 79.879C48.653 79.857 60.542 80.116 61.764 77.772C62.007 77.284 61.679 77.041 61.602 76.72C61.52 76.321 61.467 75.918 61.443 75.513C61.106 71.714 61.443 67.717 61.443 63.628V33.8214C61.443 31.9943 61.315 30.2995 61.71 28.4473C61.747 28.2771 61.868 28.2866 61.98 28.3653C62.375 28.6426 62.506 29.2348 62.732 29.6254C62.871 29.8554 63.492 30.8224 63.711 31.0745C64.257 31.7751 64.904 32.4017 65.635 32.9362C66.289 33.4087 66.337 34.5648 67.244 34.7412C68.152 34.9176 71.868 32.7598 72.404 32.4857C73.754 31.7864 74.936 31.1501 76.434 30.3783C76.539 30.3247 79.809 28.9513 79.981 28.1196C80.153 27.288 79.127 26.1288 78.516 25.1081ZM79.481 27.9653C79.201 28.5953 77.602 29.1056 76.582 29.6222C73.629 31.1217 70.747 32.7535 67.69 34.0923C67.396 34.2214 67.187 34.2372 67.032 34.0167C66.781 33.635 66.556 33.2394 66.357 32.8322C66.291 32.722 66.217 32.6167 66.134 32.5172C65.944 32.3642 65.767 32.1978 65.604 32.0195C65.017 31.3548 64.369 30.7594 63.991 30.0633C62.979 28.2362 62.732 24.9128 63.508 22.9912C64.234 21.1862 65.749 16.2941 65.429 15.4309C65.385 15.3175 65.284 15.2829 65.257 15.4309C64.74 17.8912 64.369 20.3073 63.185 22.6762C62.648 23.7567 61.963 24.6797 61.571 25.8263C60.194 29.9215 60.768 35.6988 60.768 41.174V63.896C60.768 67.84 60.458 71.806 60.768 75.331C60.816 76.051 60.979 76.76 61.251 77.435C59.901 78.585 57.687 78.868 55.288 79.092C52.888 79.316 46.02 79.341 39.98 79.319C33.9387 79.297 27.0541 79.319 24.6749 79.092C22.2957 78.865 20.0616 78.585 18.7083 77.435C18.9802 76.76 19.144 76.051 19.1943 75.331C19.5014 71.806 19.1943 67.84 19.1943 63.896V41.208C19.1943 35.7335 19.7646 29.9499 18.3877 25.861C17.9962 24.7049 17.3111 23.7819 16.7745 22.7109C15.5934 20.3325 15.2221 17.9164 14.7058 15.4656C14.6754 15.3238 14.5742 15.3585 14.5303 15.4656C14.1928 16.3161 15.725 21.2083 16.4506 23.0259C17.2268 24.9475 16.9703 28.2708 15.968 30.0979C15.59 30.7909 14.9555 31.3895 14.3582 32.0541C14.1937 32.2309 14.0167 32.3972 13.8284 32.5519C13.7431 32.6504 13.6675 32.7558 13.6022 32.8669C13.4045 33.2747 13.1791 33.6703 12.9273 34.0513C12.772 34.2718 12.5628 34.2561 12.2692 34.1269C9.21162 32.7881 6.32962 31.1564 3.37672 29.6569C2.36422 29.1403 0.757816 28.6394 0.477716 27.9999C0.305616 27.6156 1.20331 26.5603 1.60491 25.8956C2.08071 25.1081 6.29582 18.0203 6.44102 17.7683C7.38592 16.1933 8.73241 14.1772 9.81571 12.5045C9.95751 12.2871 11.1994 10.2049 11.7495 9.49291C12.3054 8.79211 12.9696 8.17221 13.7204 7.65331C14.9994 6.94761 17.139 6.41531 19.2078 5.84821C20.6876 5.42491 22.1401 4.92211 23.5578 4.34251C24.2328 4.07471 24.955 3.73451 25.6536 3.44151C26.7268 2.99111 27.7223 2.58781 28.7179 2.08701C29.0351 1.92631 29.3928 1.77201 29.6831 1.63651C30.4559 1.26161 31.0026 0.90571 31.9408 0.73241C32.6634 0.63091 33.3983 0.63091 34.1209 0.73241L34.3335 0.754512C36.122 0.858412 38.046 0.912013 39.993 0.912013C41.94 0.912013 43.864 0.858412 45.656 0.754512L45.869 0.73241C46.59 0.63101 47.324 0.63101 48.045 0.73241C48.983 0.90571 49.53 1.26161 50.303 1.63651C50.583 1.77201 50.951 1.92631 51.268 2.08701C52.281 2.58781 53.259 2.99111 54.332 3.44151C55.031 3.73451 55.747 4.07161 56.428 4.34251C57.847 4.92211 59.301 5.42491 60.782 5.84821C62.847 6.41211 64.987 6.94761 66.262 7.65331C66.997 8.16421 67.649 8.77231 68.196 9.45831C68.746 10.1702 69.988 12.2524 70.13 12.4698C71.223 14.1425 72.57 16.1712 73.505 17.7337C73.65 17.9762 77.865 25.0735 78.341 25.861C78.752 26.5257 79.65 27.581 79.478 27.9653H79.481Z" fill="#4E4C42"/>
</g>
</g>
<g style="mix-blend-mode:multiply">
<g style="mix-blend-mode:multiply">
<path d="M31.0039 2.87112C31.2381 3.70292 31.6904 4.46722 32.3201 5.09512C32.8755 5.75852 33.5837 6.29682 34.3922 6.67012C36.015 7.42932 37.899 7.61522 39.731 7.56792C41.573 7.54742 43.394 7.20442 45.1 6.55672C45.936 6.22142 46.699 5.74642 47.351 5.15492C48.07 4.61752 48.616 3.90592 48.931 3.09792C48.874 3.53822 48.733 3.96512 48.512 4.35802C48.293 4.76302 48.023 5.14173 47.706 5.48573C47.009 6.11333 46.196 6.61723 45.306 6.97263C43.54 7.64243 41.654 7.99722 39.748 8.01842C37.865 8.07202 35.9041 7.88293 34.1627 7.07343C33.2894 6.66773 32.5222 6.08812 31.9151 5.37542C31.648 4.99662 31.4326 4.58812 31.2739 4.15952C31.1108 3.74622 31.0197 3.31132 31.0039 2.87112Z" fill="#4E4C42"/>
</g>
</g>
<g style="mix-blend-mode:multiply">
<g style="mix-blend-mode:multiply">
<path d="M30.998 2.89331C30.932 2.70651 30.9012 2.51031 30.9069 2.31371C30.9102 2.20221 30.9451 2.09341 31.0082 1.99871C31.0422 1.94771 31.087 1.90371 31.1398 1.86951L31.2579 1.78131C31.4397 1.65191 31.651 1.56351 31.8755 1.52301C32.0864 1.47891 32.3009 1.45151 32.5167 1.44111C33.3449 1.47571 34.17 1.55891 34.987 1.69001C36.598 1.88421 38.223 1.96311 39.847 1.92621C41.473 1.91051 43.11 1.85061 44.73 1.72781C45.111 1.70261 45.52 1.61431 45.928 1.56391C46.336 1.51351 46.748 1.45371 47.167 1.43161C47.383 1.43551 47.598 1.45341 47.811 1.48521C48.035 1.50641 48.251 1.56851 48.449 1.66791C48.619 1.79431 48.758 1.9523 48.859 2.1319C48.959 2.3114 49.018 2.50851 49.033 2.71061C48.923 2.35851 48.673 2.05891 48.334 1.87271C48.155 1.82311 47.967 1.80501 47.781 1.81911C47.585 1.82461 47.39 1.84251 47.197 1.87271C46.802 1.90101 46.401 1.94201 45.999 2.00181C45.597 2.06171 45.203 2.13731 44.771 2.16881C43.127 2.29161 41.494 2.35151 39.85 2.36721C38.201 2.40421 36.552 2.32311 34.9162 2.12471C34.1204 1.99871 33.3166 1.92191 32.51 1.89471C32.1369 1.82701 31.751 1.85871 31.3963 1.98611L31.2579 2.0554C31.2221 2.0701 31.1899 2.09151 31.1634 2.11841C31.104 2.18021 31.0622 2.25491 31.0419 2.33571C30.9951 2.51821 30.9803 2.70651 30.998 2.89331Z" fill="#4E4C42"/>
</g>
</g>
<g style="mix-blend-mode:multiply">
<g style="mix-blend-mode:multiply">
<path fill-rule="evenodd" clip-rule="evenodd" d="M48.711 3.08862C48.799 2.93422 48.644 2.88072 48.539 2.83972C47.206 2.30732 45.016 2.73582 43.059 2.83972C40.911 2.95022 38.758 2.95022 36.609 2.83972C34.8984 2.73892 32.3909 2.13413 31.4393 2.87753C31.4393 2.87753 31.257 3.19253 31.0039 2.87753C31.0411 3.01413 31.0861 3.14873 31.1389 3.28073C31.1453 3.31403 31.1579 3.34602 31.176 3.37522C31.433 4.01482 31.8217 4.60133 32.3201 5.10153C32.8755 5.76493 33.5837 6.30322 34.3922 6.67662C36.015 7.43572 37.899 7.62163 39.731 7.57443C41.573 7.55183 43.395 7.20672 45.1 6.55692C45.936 6.22162 46.699 5.74652 47.351 5.15512C48.07 4.61762 48.616 3.90602 48.931 3.09802C48.931 3.09802 48.553 3.35952 48.711 3.08862Z" fill="#E4E3E1"/>
</g>
</g>
<g style="mix-blend-mode:multiply">
<g style="mix-blend-mode:multiply">
<path d="M29.4578 2.63531C29.5017 3.76231 29.8713 4.85731 30.5276 5.80431C31.1772 6.72921 32.0648 7.48731 33.1093 8.00941C34.1564 8.52861 35.2853 8.88902 36.454 9.07732C37.631 9.27642 38.825 9.37342 40.021 9.36712C41.215 9.38512 42.408 9.29652 43.585 9.10252C44.753 8.91862 45.882 8.55791 46.926 8.03461C47.966 7.50821 48.847 6.74542 49.487 5.81692C50.135 4.86212 50.502 3.76461 50.55 2.63531C50.6 3.20661 50.554 3.78172 50.412 4.33952C50.277 4.90472 50.061 5.45031 49.771 5.96181C49.164 6.99371 48.274 7.85612 47.192 8.45982C46.116 9.05692 44.936 9.47371 43.706 9.69151C42.491 9.90941 41.255 10.0149 40.017 10.0066C38.778 10.0074 37.542 9.89562 36.325 9.67262C35.0972 9.45062 33.9183 9.03521 32.8393 8.44411C31.7588 7.84631 30.8661 6.99341 30.2509 5.97121C29.9569 5.46021 29.7378 4.91452 29.5995 4.34892C29.4537 3.78852 29.4059 3.20991 29.4578 2.63531Z" fill="#E4E3E1"/>
</g>
</g>
<path d="M56 24H40V40H56V24Z" fill="url(#paint1_linear)"/>
<defs>
<linearGradient id="paint0_linear" x1="71" y1="14" x2="71" y2="46" gradientUnits="userSpaceOnUse">
<stop stop-color="#8586AD" stop-opacity="0.8"/>
<stop offset="1" stop-color="#8586AD" stop-opacity="0.5"/>
</linearGradient>
<linearGradient id="paint1_linear" x1="48" y1="24" x2="48" y2="40" gradientUnits="userSpaceOnUse">
<stop stop-color="#8586AD" stop-opacity="0.8"/>
<stop offset="1" stop-color="#8586AD" stop-opacity="0.5"/>
</linearGradient>
</defs>
</svg>
