<svg width="76" height="72" viewBox="0 0 76 72" fill="none" xmlns="http://www.w3.org/2000/svg">
<path fill-rule="evenodd" clip-rule="evenodd" d="M74.024 22.6002C72.6643 20.4227 71.6011 18.5033 70.2571 16.3626C70.1372 16.1698 67.7332 12.5123 66.6416 10.9444C65.8687 9.83867 65.0926 8.50609 64.0799 7.42301C63.745 7.1034 63.3889 6.80231 63.0135 6.5214C62.6449 6.28011 62.243 6.08283 61.8178 5.9345C60.8335 5.58576 59.2151 5.18031 57.8995 4.85142C55.038 4.13126 52.2049 2.98014 49.6116 1.87155C48.0626 1.2081 46.9773 0.40855 45.3936 0.110847C44.8804 -0.0287994 44.334 -0.0366561 43.8161 0.0881644L43.6332 0.116517C41.8948 0.221422 39.9483 0.272457 38.0017 0.272457C36.0552 0.272457 34.1118 0.221422 32.3734 0.116517L32.1904 0.0881644C31.6726 -0.0366561 31.1262 -0.0287994 30.613 0.110847C29.0356 0.40855 27.944 1.2081 26.395 1.87155C23.8016 2.98014 20.9654 4.13977 18.1039 4.85142C16.7915 5.18031 15.1731 5.58576 14.1888 5.9345C13.7672 6.08576 13.3695 6.28593 13.0057 6.5299C12.6303 6.81082 12.2742 7.11191 11.9393 7.43152C10.9266 8.51459 10.1505 9.84717 9.37757 10.9529C8.28283 12.5208 5.88198 16.1783 5.76209 16.3711C4.41496 18.5033 3.35177 20.4227 1.99518 22.6087C1.42099 23.5274 0.461904 24.5679 0.638577 25.3164C0.81525 26.0649 3.85655 27.3011 3.95435 27.3493C5.35196 28.044 6.44985 28.6167 7.72127 29.2461C8.21974 29.4928 11.6585 31.4434 12.5419 31.2762C13.4253 31.1089 13.4347 30.0768 14.0499 29.6516C14.7309 29.1695 15.3349 28.6057 15.8451 27.9759C16.0533 27.7491 16.6338 26.8787 16.7631 26.6717C16.9745 26.3343 17.0944 25.8013 17.4667 25.5376C17.5708 25.4667 17.6843 25.4582 17.7159 25.6113C18.085 27.2784 17.9683 28.8038 17.9683 30.4483V57.2643C17.9683 60.9501 18.2838 64.5424 17.9683 67.9618C17.9435 68.3262 17.893 68.689 17.8169 69.0477C17.7474 69.3312 17.4383 69.5552 17.6654 69.9946C18.8106 72.1041 29.9221 71.8716 30.7771 71.8914C33.2189 71.9482 35.6166 71.9907 38.0017 71.9992C40.3868 72.0077 42.7845 71.9482 45.2295 71.8914C46.0813 71.8716 57.196 72.1041 58.338 69.9946C58.5652 69.5552 58.2591 69.3369 58.1897 69.0477C58.1105 68.6894 58.0599 68.3265 58.0383 67.9618C57.7228 64.5424 58.0383 60.9445 58.0383 57.2643V30.4426C58.0383 28.7981 57.9184 27.2728 58.2875 25.6056C58.3222 25.4525 58.4358 25.461 58.5399 25.5319C58.9122 25.7814 59.0321 26.3144 59.2435 26.666C59.3728 26.873 59.9533 27.7434 60.1615 27.9702C60.6699 28.6014 61.2742 29.1654 61.9567 29.6459C62.5687 30.0712 62.616 31.1117 63.4615 31.2705C64.307 31.4293 67.7868 29.4871 68.2853 29.2404C69.5473 28.611 70.6515 28.0383 72.0522 27.3436C72.15 27.2954 75.2071 26.0593 75.368 25.3107C75.5289 24.5622 74.5982 23.5189 74.024 22.6002Z" fill="white"/>
<g style="mix-blend-mode:multiply">
<path fill-rule="evenodd" clip-rule="evenodd" d="M74.024 22.6002C72.6643 20.4227 71.6011 18.5033 70.2571 16.3626C70.1372 16.1698 67.7332 12.5123 66.6416 10.9444C65.8687 9.83867 65.0926 8.50609 64.0799 7.42301C63.745 7.1034 63.3889 6.80231 63.0135 6.5214C62.6449 6.28011 62.243 6.08283 61.8178 5.9345C60.8335 5.58576 59.2151 5.18031 57.8995 4.85142C55.038 4.13126 52.2049 2.98014 49.6116 1.87155C48.0626 1.2081 46.9773 0.40855 45.3936 0.110847C44.8804 -0.0287994 44.334 -0.0366561 43.8161 0.0881644L43.6332 0.116517C41.8948 0.221422 39.9483 0.272457 38.0017 0.272457C36.0552 0.272457 34.1118 0.221422 32.3734 0.116517L32.1904 0.0881644C31.6726 -0.0366561 31.1262 -0.0287994 30.613 0.110847C29.0356 0.40855 27.944 1.2081 26.395 1.87155C23.8016 2.98014 20.9654 4.13977 18.1039 4.85142C16.7915 5.18031 15.1731 5.58576 14.1888 5.9345C13.7672 6.08576 13.3695 6.28593 13.0057 6.5299C12.6303 6.81082 12.2742 7.11191 11.9393 7.43152C10.9266 8.51459 10.1505 9.84717 9.37757 10.9529C8.28283 12.5208 5.88198 16.1783 5.76209 16.3711C4.41496 18.5033 3.35177 20.4227 1.99518 22.6087C1.42099 23.5274 0.461904 24.5679 0.638577 25.3164C0.81525 26.0649 3.85655 27.3011 3.95435 27.3493C5.35196 28.044 6.44985 28.6167 7.72127 29.2461C8.21974 29.4928 11.6585 31.4434 12.5419 31.2762C13.4253 31.1089 13.4347 30.0768 14.0499 29.6516C14.7309 29.1695 15.3349 28.6057 15.8451 27.9759C16.0533 27.7491 16.6338 26.8787 16.7631 26.6717C16.9745 26.3343 17.0944 25.8013 17.4667 25.5376C17.5708 25.4667 17.6843 25.4582 17.7159 25.6113C18.085 27.2784 17.9683 28.8038 17.9683 30.4483V57.2643C17.9683 60.9501 18.2838 64.5424 17.9683 67.9618C17.9435 68.3262 17.893 68.689 17.8169 69.0477C17.7474 69.3312 17.4383 69.5552 17.6654 69.9946C18.8106 72.1041 29.9221 71.8716 30.7771 71.8914C33.2189 71.9482 35.6166 71.9907 38.0017 71.9992C40.3868 72.0077 42.7845 71.9482 45.2295 71.8914C46.0813 71.8716 57.196 72.1041 58.338 69.9946C58.5652 69.5552 58.2591 69.3369 58.1897 69.0477C58.1105 68.6894 58.0599 68.3265 58.0383 67.9618C57.7228 64.5424 58.0383 60.9445 58.0383 57.2643V30.4426C58.0383 28.7981 57.9184 27.2728 58.2875 25.6056C58.3222 25.4525 58.4358 25.461 58.5399 25.5319C58.9122 25.7814 59.0321 26.3144 59.2435 26.666C59.3728 26.873 59.9533 27.7434 60.1615 27.9702C60.6699 28.6014 61.2742 29.1654 61.9567 29.6459C62.5687 30.0712 62.616 31.1117 63.4615 31.2705C64.307 31.4293 67.7868 29.4871 68.2853 29.2404C69.5473 28.611 70.6515 28.0383 72.0522 27.3436C72.15 27.2954 75.2071 26.0593 75.368 25.3107C75.5289 24.5622 74.5982 23.5189 74.024 22.6002ZM74.9295 25.1718C74.6645 25.7389 73.1691 26.1982 72.2163 26.6632C69.4558 28.0128 66.7615 29.4814 63.9064 30.6864C63.6287 30.8027 63.4363 30.8168 63.2754 30.6184C63.0412 30.2748 62.8305 29.9188 62.6444 29.5523C62.5845 29.4525 62.5148 29.3576 62.4362 29.2688C62.2586 29.1311 62.093 28.9813 61.9409 28.8208C61.3951 28.2226 60.7893 27.6867 60.4328 27.0601C59.4864 25.4157 59.2592 22.4244 59.9817 20.6949C60.66 19.0703 62.0765 14.6671 61.7768 13.8903C61.739 13.7882 61.6443 13.757 61.6159 13.8903C61.1332 16.1046 60.7862 18.2793 59.6788 20.4114C59.1772 21.3839 58.5368 22.2146 58.174 23.2467C56.8836 26.9325 57.42 32.1324 57.42 37.0601V57.5109C57.42 61.0607 57.1297 64.6303 57.42 67.803C57.4659 68.4508 57.6179 69.089 57.8711 69.6969C56.6091 70.7318 54.5427 70.987 52.2964 71.1883C50.0502 71.3896 43.6332 71.4123 37.9859 71.3924C32.3387 71.3726 25.9059 71.3924 23.6786 71.1883C21.4513 70.9842 19.3659 70.7318 18.1008 69.6969C18.355 69.0891 18.5081 68.4509 18.5551 67.803C18.8453 64.6303 18.5551 61.0607 18.5551 57.5109V37.0913C18.5551 32.1636 19.0914 26.958 17.8011 23.2779C17.4383 22.2373 16.7978 21.4066 16.2931 20.4426C15.1889 18.302 14.8418 16.1273 14.3591 13.9215C14.3307 13.7939 14.2361 13.8251 14.1982 13.9215C13.8827 14.687 15.3119 19.0902 15.9933 20.7261C16.7158 22.4556 16.476 25.4468 15.5422 27.0913C15.1857 27.7151 14.58 28.2538 14.0342 28.852C13.8812 29.0118 13.7157 29.1615 13.5388 29.3C13.4592 29.3887 13.3884 29.4836 13.3275 29.5835C13.1488 29.9502 12.9444 30.3062 12.7154 30.6496C12.5671 30.848 12.3747 30.8339 12.0844 30.7176C9.22614 29.5126 6.53503 28.044 3.77452 26.6944C2.82806 26.2294 1.32635 25.7786 1.06134 25.203C0.90044 24.8571 1.73963 23.9073 2.11506 23.309C2.5599 22.6002 6.50033 16.2209 6.63599 15.994C7.52251 14.5764 8.77815 12.7618 9.79086 11.2563C9.92337 11.0607 11.0844 9.18655 11.6018 8.54578C12.1127 7.92775 12.7218 7.38039 13.4095 6.92117C14.5989 6.28607 16.6022 5.80407 18.533 5.29656C19.9164 4.91553 21.2743 4.46303 22.5996 3.9413C23.2306 3.7003 23.9058 3.39409 24.5588 3.13041C25.5621 2.72497 26.4928 2.36205 27.4234 1.91124C27.7232 1.76665 28.0544 1.62772 28.3257 1.5058C29.0482 1.1684 29.5624 0.848017 30.4363 0.692077C31.1119 0.600777 31.7988 0.600777 32.4744 0.692077L32.6731 0.711924C34.3452 0.805488 36.1435 0.853688 37.9639 0.853688C39.7842 0.853688 41.5825 0.805488 43.2577 0.711924L43.4565 0.692077C44.131 0.600764 44.8169 0.600764 45.4914 0.692077C46.3684 0.848017 46.8827 1.1684 47.602 1.5058C47.867 1.62772 48.2077 1.76665 48.5074 1.91124C49.435 2.36205 50.3657 2.72497 51.3689 3.13041C52.0251 3.39409 52.6908 3.69747 53.3281 3.9413C54.6545 4.46304 56.0134 4.91554 57.3979 5.29656C59.3286 5.80407 61.3288 6.28607 62.5214 6.92117C63.2084 7.38107 63.8174 7.92833 64.3291 8.54578C64.8434 9.18655 66.0043 11.0607 66.1368 11.2563C67.159 12.7618 68.4178 14.5877 69.2917 15.994C69.4305 16.2124 73.371 22.6002 73.8127 23.309C74.2512 23.8761 75.0872 24.8259 74.9295 25.1718Z" fill="#4E4C42"/>
</g>
<rect x="25.5391" y="22" width="24.9231" height="24" fill="url(#paint0_linear)"/>
<defs>
<linearGradient id="paint0_linear" x1="38.0006" y1="22" x2="38.0006" y2="46" gradientUnits="userSpaceOnUse">
<stop stop-color="#8586AD" stop-opacity="0.8"/>
<stop offset="1" stop-color="#8586AD" stop-opacity="0.5"/>
</linearGradient>
</defs>
</svg>
