<svg width="84" height="80" viewBox="0 0 84 80" fill="none" xmlns="http://www.w3.org/2000/svg">
<path fill-rule="evenodd" clip-rule="evenodd" d="M81.9969 25.1081C80.4865 22.6888 79.3054 20.5562 77.8125 18.1778C77.6758 17.9636 75.0088 13.9 73.7927 12.1579C72.9376 10.9294 72.0755 9.44883 70.947 8.24548C70.5759 7.88961 70.1802 7.55504 69.7625 7.24374C69.3547 6.97495 68.9093 6.75569 68.4377 6.59166C67.3408 6.2042 65.5464 5.75373 64.085 5.38831C60.9064 4.58818 57.7768 3.30923 54.8785 2.07753C53.1542 1.3404 51.9522 0.452061 50.1894 0.121298C49.6249 -0.031372 49.0243 -0.0400967 48.4546 0.0960966L48.2513 0.127598C46.3168 0.244153 44.158 0.300855 41.9957 0.300855C39.8333 0.300855 37.6745 0.244153 35.74 0.127598L35.5367 0.0960966C34.967 -0.0400967 34.3664 -0.031372 33.802 0.121298C32.0497 0.452061 30.8371 1.3404 29.1128 2.07753C26.2321 3.30923 23.0849 4.59763 19.9063 5.38831C18.4449 5.75373 16.6505 6.2042 15.5536 6.59166C15.082 6.75569 14.6366 6.97495 14.2289 7.24374C13.8111 7.55504 13.4155 7.88961 13.0443 8.24548C11.9158 9.44883 11.0572 10.9294 10.1986 12.1579C8.97551 13.9094 6.29801 17.9731 6.17535 18.1873C4.6824 20.5562 3.50135 22.6888 1.99088 25.1176C1.35655 26.1382 0.291158 27.2943 0.48391 28.1259C0.676662 28.9576 4.06209 30.331 4.16722 30.3846C5.72326 31.1564 6.94285 31.7927 8.35169 32.492C8.90892 32.7661 12.7254 34.9334 13.7102 34.7475C14.695 34.5616 14.702 33.415 15.3854 32.9425C16.1418 32.4069 16.8128 31.7805 17.3795 31.0808C17.6108 30.8287 18.2521 29.8617 18.3958 29.6317C18.6306 29.2568 18.7673 28.6646 19.1773 28.3716C19.2965 28.2929 19.4227 28.2834 19.4577 28.4536C19.8677 30.3058 19.7346 32.0006 19.7346 33.8277V63.6216C19.7346 67.7168 20.085 71.708 19.7346 75.507C19.7097 75.912 19.6547 76.3151 19.5699 76.7135C19.4892 77.0285 19.1493 77.2774 19.4016 77.7657C20.6668 80.1283 33.0169 79.8573 33.9842 79.8794C36.6967 79.9424 39.3602 79.9896 42.0097 79.9991C44.6591 80.0085 47.3226 79.9424 50.0387 79.8794C50.9849 79.8573 63.3315 80.1156 64.6002 77.7719C64.8525 77.2837 64.5126 77.0411 64.432 76.7198C64.3472 76.3214 64.2921 75.9183 64.2673 75.5133C63.9168 71.7143 64.2673 67.7167 64.2673 63.6279V33.8214C64.2673 31.9943 64.1341 30.2995 64.5441 28.4473C64.5827 28.2771 64.7088 28.2866 64.8245 28.3653C65.2345 28.6426 65.3712 29.2348 65.606 29.6254C65.7497 29.8554 66.3946 30.8224 66.6224 31.0745C67.1892 31.7751 67.8615 32.4017 68.62 32.9362C69.2999 33.4087 69.3489 34.5648 70.2916 34.7412C71.2344 34.9176 75.0929 32.7598 75.6501 32.4857C77.052 31.7864 78.2786 31.1501 79.8346 30.3783C79.9433 30.3247 83.3392 28.9513 83.5179 28.1196C83.6967 27.288 82.6313 26.1288 81.9969 25.1081Z" fill="white"/>
<g style="mix-blend-mode:multiply">
<path fill-rule="evenodd" clip-rule="evenodd" d="M15.5535 16.2878C16.1808 18.2504 16.8607 21.1485 17.6563 23.0953C18.4518 25.042 18.1504 28.504 17.1096 30.3406C16.717 31.0304 16.0582 31.4337 15.4449 32.0983C15.2104 32.3506 14.9433 32.5769 14.6493 32.7725C15.0348 32.1204 15.4589 31.5723 15.8199 30.9674C16.321 30.1358 17.0395 29.2758 16.8257 27.8173C16.6294 26.4754 15.3257 25.2972 14.6493 24.0561C14.2989 23.426 14.3269 22.1187 14.3164 20.9059C14.8141 22.1093 14.8106 23.741 16.0337 24.3175C16.1598 24.3742 16.1633 24.2955 16.1668 24.264C16.4192 21.747 15.0874 18.9465 15.5535 16.2878Z" fill="#E4E3E1"/>
</g>
<g style="mix-blend-mode:multiply">
<path fill-rule="evenodd" clip-rule="evenodd" d="M68.4229 16.2878C67.7956 18.2504 67.1192 21.1485 66.3202 23.0953C65.5212 25.042 65.8261 28.504 66.8669 30.3406C67.2594 31.0304 67.9183 31.4337 68.5351 32.0983C68.7674 32.3514 69.0334 32.5778 69.3271 32.7725C68.9416 32.1204 68.5211 31.5723 68.1566 30.9674C67.6554 30.1358 66.937 29.2758 67.1508 27.8173C67.347 26.4754 68.6507 25.2972 69.3271 24.0561C69.6776 23.426 69.6496 22.1187 69.6776 20.9059C69.1764 22.1093 69.1799 23.741 67.9568 24.3175C67.8307 24.3742 67.8272 24.2955 67.8237 24.264C67.5573 21.747 68.8891 18.9465 68.4229 16.2878Z" fill="#E4E3E1"/>
</g>
<g style="mix-blend-mode:multiply">
<path fill-rule="evenodd" clip-rule="evenodd" d="M81.9969 25.1081C80.4865 22.6888 79.3054 20.5562 77.8125 18.1778C77.6758 17.9636 75.0088 13.9 73.7927 12.1579C72.9376 10.9294 72.0755 9.44883 70.947 8.24548C70.5759 7.88961 70.1802 7.55504 69.7625 7.24374C69.3547 6.97495 68.9093 6.75569 68.4377 6.59166C67.3408 6.2042 65.5464 5.75373 64.085 5.38831C60.9064 4.58818 57.7768 3.30923 54.8785 2.07753C53.1542 1.3404 51.9522 0.452061 50.1894 0.121298C49.6249 -0.031372 49.0243 -0.0400967 48.4546 0.0960966L48.2513 0.127598C46.3168 0.244153 44.158 0.300855 41.9957 0.300855C39.8333 0.300855 37.6745 0.244153 35.74 0.127598L35.5367 0.0960966C34.967 -0.0400967 34.3664 -0.031372 33.802 0.121298C32.0497 0.452061 30.8371 1.3404 29.1128 2.07753C26.2321 3.30923 23.0849 4.59763 19.9063 5.38831C18.4449 5.75373 16.6505 6.2042 15.5536 6.59166C15.082 6.75569 14.6366 6.97495 14.2289 7.24374C13.8111 7.55504 13.4155 7.88961 13.0443 8.24548C11.9158 9.44883 11.0572 10.9294 10.1986 12.1579C8.97551 13.9094 6.29801 17.9731 6.17535 18.1873C4.6824 20.5562 3.50135 22.6888 1.99088 25.1176C1.35655 26.1382 0.291158 27.2943 0.48391 28.1259C0.676662 28.9576 4.06209 30.331 4.16722 30.3846C5.72326 31.1564 6.94285 31.7927 8.35169 32.492C8.90892 32.7661 12.7254 34.9334 13.7102 34.7475C14.695 34.5616 14.702 33.415 15.3854 32.9425C16.1418 32.4069 16.8128 31.7805 17.3795 31.0808C17.6108 30.8287 18.2521 29.8617 18.3958 29.6317C18.6306 29.2568 18.7673 28.6646 19.1773 28.3716C19.2965 28.2929 19.4227 28.2834 19.4577 28.4536C19.8677 30.3058 19.7346 32.0006 19.7346 33.8277V63.6216C19.7346 67.7168 20.085 71.708 19.7346 75.507C19.7097 75.912 19.6547 76.3151 19.5699 76.7135C19.4892 77.0285 19.1493 77.2774 19.4016 77.7657C20.6668 80.1283 33.0169 79.8573 33.9842 79.8794C36.6967 79.9424 39.3602 79.9896 42.0097 79.9991C44.6591 80.0085 47.3226 79.9424 50.0387 79.8794C50.9849 79.8573 63.3315 80.1156 64.6002 77.7719C64.8525 77.2837 64.5126 77.0411 64.432 76.7198C64.3472 76.3214 64.2921 75.9183 64.2673 75.5133C63.9168 71.7143 64.2673 67.7167 64.2673 63.6279V33.8214C64.2673 31.9943 64.1341 30.2995 64.5441 28.4473C64.5827 28.2771 64.7088 28.2866 64.8245 28.3653C65.2345 28.6426 65.3712 29.2348 65.606 29.6254C65.7497 29.8554 66.3946 30.8224 66.6224 31.0745C67.1892 31.7751 67.8615 32.4017 68.62 32.9362C69.2999 33.4087 69.3489 34.5648 70.2916 34.7412C71.2344 34.9176 75.0929 32.7598 75.6501 32.4857C77.052 31.7864 78.2786 31.1501 79.8346 30.3783C79.9433 30.3247 83.3392 28.9513 83.5179 28.1196C83.6967 27.288 82.6313 26.1288 81.9969 25.1081ZM82.9992 27.9653C82.7084 28.5953 81.0472 29.1056 79.9888 29.6222C76.9223 31.1217 73.9294 32.7535 70.7542 34.0923C70.4493 34.2214 70.2321 34.2372 70.0709 34.0167C69.8107 33.635 69.5767 33.2394 69.3699 32.8322C69.302 32.722 69.2247 32.6167 69.1386 32.5172C68.9414 32.3642 68.7574 32.1978 68.5884 32.0195C67.9786 31.3548 67.3057 30.7594 66.9132 30.0633C65.8619 28.2362 65.606 24.9128 66.4121 22.9912C67.1656 21.1862 68.7391 16.2941 68.4062 15.4309C68.3606 15.3175 68.2555 15.2829 68.2274 15.4309C67.6912 17.8912 67.3057 20.3073 66.0756 22.6762C65.5184 23.7567 64.807 24.6797 64.4004 25.8263C62.9706 29.9215 63.5664 35.6988 63.5664 41.1738V63.8956C63.5664 67.8396 63.2439 71.8056 63.5664 75.3306C63.6159 76.0505 63.7849 76.7598 64.0675 77.4349C62.6657 78.5847 60.3667 78.8682 57.8749 79.0919C55.3832 79.3155 48.2513 79.3407 41.9781 79.3187C35.7049 79.2966 28.5556 79.3187 26.0849 79.0919C23.6141 78.865 21.2941 78.5847 19.8888 77.4349C20.1712 76.7596 20.3412 76.0505 20.3934 75.3306C20.7123 71.8056 20.3934 67.8396 20.3934 63.8956V41.2084C20.3934 35.7335 20.9857 29.9499 19.5558 25.861C19.1493 24.7049 18.4379 23.7819 17.8806 22.7109C16.654 20.3325 16.2685 17.9164 15.7323 15.4656C15.7008 15.3238 15.5957 15.3585 15.5501 15.4656C15.1996 16.3161 16.7907 21.2083 17.5442 23.0259C18.3503 24.9475 18.0839 28.2708 17.0431 30.0979C16.6505 30.7909 15.9917 31.3895 15.3714 32.0541C15.2005 32.2309 15.0167 32.3972 14.8211 32.5519C14.7326 32.6504 14.6541 32.7558 14.5863 32.8669C14.381 33.2747 14.1469 33.6703 13.8854 34.0513C13.7242 34.2718 13.5069 34.2561 13.202 34.1269C10.0269 32.7881 7.03397 31.1564 3.96746 29.6569C2.91609 29.1403 1.24791 28.6394 0.957028 27.9999C0.778294 27.6156 1.71051 26.5603 2.12756 25.8956C2.6217 25.1081 6.99892 18.0203 7.14962 17.7683C8.1309 16.1933 9.52923 14.1772 10.6542 12.5045C10.8014 12.2871 12.0911 10.2049 12.6623 9.49293C13.2396 8.79214 13.9294 8.17217 14.709 7.65325C16.0372 6.94763 18.2591 6.41525 20.4074 5.84823C21.9442 5.42489 23.4526 4.92213 24.9249 4.34247C25.6258 4.07471 26.3757 3.73449 27.1012 3.44153C28.2157 2.99106 29.2495 2.58785 30.2834 2.08698C30.6128 1.92632 30.9843 1.77197 31.2857 1.63651C32.0882 1.26164 32.656 0.905679 33.6302 0.732422C34.3807 0.630936 35.1438 0.630936 35.8942 0.732422L36.115 0.754473C37.9724 0.858427 39.97 0.911979 41.9922 0.911979C44.0143 0.911979 46.0119 0.858427 47.8728 0.754473L48.0936 0.732422C48.8429 0.630968 49.6048 0.630968 50.3541 0.732422C51.3284 0.905679 51.8961 1.26164 52.6987 1.63651C52.9895 1.77197 53.3715 1.92632 53.701 2.08698C54.7523 2.58785 55.7687 2.99106 56.8831 3.44153C57.6086 3.73449 58.3515 4.07156 59.0595 4.34247C60.533 4.92214 62.0424 5.4249 63.5804 5.84823C65.7252 6.4121 67.9471 6.94763 69.2718 7.65325C70.035 8.16422 70.7115 8.77226 71.2799 9.45828C71.8512 10.1702 73.1409 12.2524 73.2881 12.4698C74.4235 14.1425 75.8219 16.1712 76.7926 17.7337C76.9433 17.9762 81.3206 25.0735 81.8147 25.861C82.2423 26.5257 83.1745 27.581 82.9958 27.9653H82.9992Z" fill="#4E4C42"/>
</g>
<g style="mix-blend-mode:multiply">
<path d="M32.6562 2.87109C32.8995 3.70289 33.3692 4.46719 34.023 5.09508C34.5998 5.75852 35.3352 6.29683 36.1748 6.67015C37.8606 7.42933 39.8161 7.61519 41.7191 7.56793C43.6317 7.54739 45.523 7.20439 47.2949 6.55674C48.1626 6.22144 48.9548 5.74636 49.6324 5.15494C50.3788 4.61751 50.9462 3.90586 51.2726 3.0979C51.214 3.53815 51.0668 3.96514 50.838 4.35795C50.6108 4.76304 50.3295 5.14174 50.0004 5.4857C49.2773 6.11331 48.4329 6.61717 47.5087 6.97256C45.6743 7.64243 43.7164 7.99717 41.7366 8.0184C39.7811 8.07196 37.7449 7.88295 35.9365 7.07336C35.0297 6.66773 34.2329 6.08812 33.6025 5.37545C33.3251 4.9966 33.1015 4.58813 32.9366 4.1595C32.7673 3.74623 32.6726 3.31126 32.6562 2.87109Z" fill="#4E4C42"/>
</g>
<g style="mix-blend-mode:multiply">
<path d="M32.65 2.8933C32.5814 2.70646 32.5494 2.51035 32.5554 2.31368C32.5588 2.20216 32.5951 2.09345 32.6605 1.99866C32.6958 1.9477 32.7423 1.90375 32.7972 1.86951L32.9199 1.78131C33.1086 1.65188 33.3281 1.56347 33.5612 1.52299C33.7802 1.47895 34.003 1.45155 34.2271 1.44109C35.0871 1.47574 35.9439 1.55885 36.7924 1.68995C38.4655 1.88416 40.1526 1.96314 41.839 1.92621C43.5282 1.91046 45.228 1.85061 46.9102 1.72775C47.3062 1.70255 47.7302 1.61435 48.1543 1.56395C48.5783 1.51354 49.0059 1.45369 49.4405 1.43164C49.6647 1.43554 49.8884 1.45343 50.1098 1.48519C50.3418 1.50644 50.5669 1.56852 50.7722 1.6679C50.9483 1.79433 51.0931 1.95234 51.1975 2.13186C51.3019 2.31138 51.3635 2.50848 51.3785 2.71059C51.264 2.35855 51.0046 2.05893 50.6531 1.87266C50.4668 1.82314 50.2719 1.80499 50.0783 1.81911C49.8751 1.82461 49.6725 1.8425 49.472 1.87266C49.062 1.90101 48.6449 1.94196 48.2279 2.00181C47.8108 2.06167 47.4008 2.13727 46.9522 2.16877C45.2455 2.29163 43.5493 2.35148 41.8425 2.36723C40.1303 2.40422 38.4173 2.32312 36.7188 2.12467C35.8924 1.9987 35.0577 1.92188 34.2201 1.89471C33.8327 1.827 33.4319 1.85866 33.0636 1.98606L32.9199 2.05537C32.8827 2.07006 32.8493 2.09151 32.8217 2.11837C32.7601 2.18016 32.7167 2.2549 32.6956 2.33573C32.647 2.51815 32.6316 2.70645 32.65 2.8933Z" fill="#4E4C42"/>
</g>
<g style="mix-blend-mode:multiply">
<path fill-rule="evenodd" clip-rule="evenodd" d="M51.0448 3.08857C51.1359 2.93421 50.9747 2.88066 50.866 2.83971C49.4817 2.30734 47.2073 2.73575 45.1746 2.83971C42.9439 2.95016 40.7081 2.95016 38.4774 2.83971C36.7005 2.7389 34.0966 2.13408 33.1083 2.87751C33.1083 2.87751 32.9191 3.19252 32.6562 2.87751C32.6949 3.01409 32.7417 3.14869 32.7964 3.28073C32.8031 3.31399 32.8162 3.34596 32.835 3.37523C33.1018 4.01485 33.5054 4.6013 34.023 5.1015C34.5998 5.76493 35.3352 6.30324 36.1748 6.67657C37.8606 7.43575 39.8161 7.6216 41.7191 7.57435C43.6321 7.5518 45.5235 7.20666 47.2949 6.55686C48.1626 6.22155 48.9548 5.74647 49.6324 5.15505C50.3788 4.61763 50.9462 3.90597 51.2726 3.09802C51.2726 3.09802 50.8801 3.35948 51.0448 3.08857Z" fill="#E4E3E1"/>
</g>
<g style="mix-blend-mode:multiply">
<path d="M31.0523 2.63525C31.0979 3.76232 31.4818 4.85732 32.1633 5.80428C32.8378 6.7292 33.7596 7.48734 34.8443 8.00937C35.9317 8.52856 37.104 8.88903 38.3173 9.07727C39.5395 9.27635 40.7796 9.37337 42.0217 9.36708C43.2618 9.38506 44.5011 9.29646 45.7225 9.10247C46.936 8.9186 48.1079 8.55789 49.192 8.03457C50.2721 7.50821 51.187 6.74545 51.852 5.81688C52.5249 4.86206 52.9056 3.76461 52.9559 2.63525C53.0079 3.20658 52.9595 3.78171 52.8123 4.33947C52.6723 4.90466 52.4484 5.45034 52.1464 5.96179C51.517 6.99372 50.5927 7.85605 49.4689 8.45984C48.3512 9.05691 47.126 9.47375 45.8487 9.69154C44.5864 9.90938 43.3034 10.0149 42.0182 10.0066C40.7311 10.0074 39.447 9.8956 38.1841 9.67264C36.9086 9.4506 35.6844 9.03516 34.5639 8.44409C33.4418 7.8463 32.5147 6.99341 31.8759 5.97124C31.5706 5.46015 31.3431 4.91449 31.1995 4.34892C31.0481 3.78855 30.9984 3.20987 31.0523 2.63525Z" fill="#E4E3E1"/>
</g>
</svg>
