<svg width="107" height="80" viewBox="0 0 107 80" fill="none" xmlns="http://www.w3.org/2000/svg">
<path fill-rule="evenodd" clip-rule="evenodd" d="M105.688 22.6002C104.379 20.4227 103.355 18.5033 102.061 16.3626C101.945 16.1698 99.6303 12.5123 98.5791 10.9444C97.8348 9.83867 97.0874 8.50609 96.1122 7.42301C95.7898 7.1034 95.4469 6.80231 95.0854 6.5214C94.7304 6.28011 94.3434 6.08283 93.934 5.9345C92.9861 5.58576 91.4276 5.18031 90.1607 4.85142C87.4052 4.13126 84.6771 2.98014 82.1798 1.87155C80.6882 1.2081 79.6431 0.40855 78.118 0.110847C77.6239 -0.0287994 77.0977 -0.0366561 76.599 0.0881644L76.4228 0.116517C74.7488 0.221422 72.8744 0.272457 70.9999 0.272457C69.1255 0.272457 67.254 0.221422 65.5801 0.116517L65.4039 0.0881644C64.9052 -0.0366561 64.379 -0.0287994 63.8849 0.110847C62.3659 0.40855 61.3147 1.2081 59.823 1.87155C57.3258 2.98014 54.5946 4.13977 51.8391 4.85142C50.5753 5.18031 49.0168 5.58576 48.0689 5.9345C47.663 6.08576 47.28 6.28593 46.9297 6.5299C46.5682 6.81082 46.2253 7.11191 45.9028 7.43152C44.9276 8.51459 44.1802 9.84717 43.4359 10.9529C42.3817 12.5208 40.0698 16.1783 39.9544 16.3711C38.6571 18.5033 37.6333 20.4227 36.327 22.6087C35.774 23.5274 34.8505 24.5679 35.0206 25.3164C35.1907 26.0649 38.1194 27.3011 38.2136 27.3493C39.5594 28.044 40.6166 28.6167 41.841 29.2461C42.321 29.4928 45.6324 31.4434 46.4831 31.2762C47.3337 31.1089 47.3428 30.0768 47.9352 29.6516C48.591 29.1695 49.1726 28.6057 49.6639 27.9759C49.8644 27.7491 50.4234 26.8787 50.5479 26.6717C50.7515 26.3343 50.8669 25.8013 51.2254 25.5376C51.3257 25.4667 51.435 25.4582 51.4654 25.6113C51.8209 27.2784 51.7085 28.8038 51.7085 30.4483V57.2643C51.7085 60.9501 52.0123 64.5424 51.7085 67.9618C51.6846 68.3262 51.6359 68.689 51.5626 69.0477C51.4958 69.3312 51.1981 69.5552 51.4168 69.9946C52.5196 72.1041 63.2195 71.8716 64.0428 71.8914C66.3943 71.9481 68.7032 71.9907 70.9999 71.9992C73.2967 72.0077 75.6056 71.9481 77.96 71.8914C78.7803 71.8716 89.4833 72.1041 90.583 69.9946C90.8018 69.5552 90.5071 69.3369 90.4402 69.0477C90.3639 68.6894 90.3152 68.3265 90.2944 67.9618C89.9906 64.5424 90.2944 60.9445 90.2944 57.2643V30.4426C90.2944 28.7981 90.179 27.2728 90.5344 25.6056C90.5678 25.4525 90.6772 25.461 90.7775 25.5319C91.1359 25.7814 91.2514 26.3144 91.4549 26.666C91.5795 26.873 92.1385 27.7434 92.339 27.9702C92.8286 28.6014 93.4104 29.1654 94.0676 29.6459C94.657 30.0712 94.7026 31.1117 95.5168 31.2705C96.331 31.4293 99.6819 29.4871 100.162 29.2404C101.377 28.611 102.44 28.0383 103.789 27.3436C103.883 27.2954 106.827 26.0593 106.982 25.3107C107.137 24.5622 106.241 23.5189 105.688 22.6002Z" fill="white"/>
<g style="mix-blend-mode:multiply">
<path fill-rule="evenodd" clip-rule="evenodd" d="M105.688 22.6002C104.379 20.4227 103.355 18.5033 102.061 16.3626C101.945 16.1698 99.6303 12.5123 98.5791 10.9444C97.8348 9.83867 97.0874 8.50609 96.1122 7.42301C95.7898 7.1034 95.4469 6.80231 95.0854 6.5214C94.7304 6.28011 94.3434 6.08283 93.934 5.9345C92.9861 5.58576 91.4276 5.18031 90.1607 4.85142C87.4052 4.13126 84.6771 2.98014 82.1798 1.87155C80.6882 1.2081 79.6431 0.40855 78.118 0.110847C77.6239 -0.0287994 77.0977 -0.0366561 76.599 0.0881644L76.4228 0.116517C74.7488 0.221422 72.8744 0.272457 70.9999 0.272457C69.1255 0.272457 67.254 0.221422 65.5801 0.116517L65.4039 0.0881644C64.9052 -0.0366561 64.379 -0.0287994 63.8849 0.110847C62.3659 0.40855 61.3147 1.2081 59.823 1.87155C57.3258 2.98014 54.5946 4.13977 51.8391 4.85142C50.5753 5.18031 49.0168 5.58576 48.0689 5.9345C47.663 6.08576 47.28 6.28593 46.9297 6.5299C46.5682 6.81082 46.2253 7.11191 45.9028 7.43152C44.9276 8.51459 44.1802 9.84717 43.4359 10.9529C42.3817 12.5208 40.0698 16.1783 39.9544 16.3711C38.6571 18.5033 37.6333 20.4227 36.327 22.6087C35.774 23.5274 34.8505 24.5679 35.0206 25.3164C35.1907 26.0649 38.1194 27.3011 38.2136 27.3493C39.5594 28.044 40.6166 28.6167 41.841 29.2461C42.321 29.4928 45.6324 31.4434 46.4831 31.2762C47.3337 31.1089 47.3428 30.0768 47.9352 29.6516C48.591 29.1695 49.1726 28.6057 49.6639 27.9759C49.8644 27.7491 50.4234 26.8787 50.5479 26.6717C50.7515 26.3343 50.8669 25.8013 51.2254 25.5376C51.3257 25.4667 51.435 25.4582 51.4654 25.6113C51.8209 27.2784 51.7085 28.8038 51.7085 30.4483V57.2643C51.7085 60.9501 52.0123 64.5424 51.7085 67.9618C51.6846 68.3262 51.6359 68.689 51.5626 69.0477C51.4958 69.3312 51.1981 69.5552 51.4168 69.9946C52.5196 72.1041 63.2195 71.8716 64.0428 71.8914C66.3943 71.9481 68.7032 71.9907 70.9999 71.9992C73.2967 72.0077 75.6056 71.9481 77.96 71.8914C78.7803 71.8716 89.4833 72.1041 90.583 69.9946C90.8018 69.5552 90.5071 69.3369 90.4402 69.0477C90.3639 68.6894 90.3152 68.3265 90.2944 67.9618C89.9906 64.5424 90.2944 60.9445 90.2944 57.2643V30.4426C90.2944 28.7981 90.179 27.2728 90.5344 25.6056C90.5678 25.4525 90.6772 25.461 90.7775 25.5319C91.1359 25.7814 91.2514 26.3144 91.4549 26.666C91.5795 26.873 92.1385 27.7434 92.339 27.9702C92.8286 28.6014 93.4104 29.1654 94.0676 29.6459C94.657 30.0712 94.7026 31.1117 95.5168 31.2705C96.331 31.4293 99.6819 29.4871 100.162 29.2404C101.377 28.611 102.44 28.0383 103.789 27.3436C103.883 27.2954 106.827 26.0593 106.982 25.3107C107.137 24.5622 106.241 23.5189 105.688 22.6002ZM106.56 25.1718C106.305 25.7389 104.865 26.1982 103.947 26.6632C101.289 28.0128 98.6946 29.4814 95.9451 30.6864C95.6778 30.8027 95.4925 30.8168 95.3375 30.6184C95.112 30.2748 94.9091 29.9188 94.7299 29.5523C94.6722 29.4525 94.6051 29.3576 94.5294 29.2688C94.3584 29.1311 94.1989 28.9813 94.0524 28.8208C93.5269 28.2226 92.9436 27.6867 92.6003 27.0601C91.6889 25.4157 91.4701 22.4244 92.1658 20.6949C92.819 19.0703 94.1831 14.6671 93.8945 13.8903C93.858 13.7882 93.7669 13.757 93.7395 13.8903C93.2747 16.1046 92.9405 18.2793 91.8742 20.4114C91.3911 21.3839 90.7744 22.2146 90.425 23.2467C89.1825 26.9325 89.699 32.1324 89.699 37.0601V57.5109C89.699 61.0607 89.4195 64.6303 89.699 67.803C89.7432 68.4508 89.8896 69.089 90.1334 69.6969C88.9182 70.7318 86.9283 70.987 84.7652 71.1883C82.6021 71.3896 76.4228 71.4123 70.9847 71.3924C65.5467 71.3726 59.3521 71.3924 57.2073 71.1883C55.0624 70.9842 53.0543 70.7318 51.8361 69.6969C52.0809 69.0891 52.2283 68.4509 52.2735 67.803C52.553 64.6303 52.2735 61.0607 52.2735 57.5109V37.0913C52.2735 32.1636 52.79 26.958 51.5475 23.2779C51.1981 22.2373 50.5814 21.4066 50.0953 20.4426C49.032 18.302 48.6978 16.1273 48.233 13.9215C48.2056 13.7939 48.1145 13.8251 48.078 13.9215C47.7742 14.687 49.1505 19.0902 49.8067 20.7261C50.5024 22.4556 50.2715 25.4468 49.3722 27.0913C49.0289 27.7151 48.4456 28.2538 47.9201 28.852C47.7728 29.0118 47.6134 29.1615 47.4431 29.3C47.3664 29.3887 47.2982 29.4836 47.2395 29.5835C47.0675 29.9502 46.8706 30.3062 46.6502 30.6496C46.5074 30.848 46.322 30.8339 46.0425 30.7176C43.2901 29.5126 40.6987 28.044 38.0404 26.6944C37.129 26.2294 35.6829 25.7786 35.4277 25.203C35.2728 24.8571 36.0809 23.9073 36.4424 23.309C36.8708 22.6002 40.6652 16.2209 40.7959 15.994C41.6496 14.5764 42.8587 12.7618 43.8339 11.2563C43.9615 11.0607 45.0795 9.18655 45.5777 8.54578C46.0698 7.92775 46.6563 7.38039 47.3185 6.92117C48.4639 6.28607 50.393 5.80407 52.2523 5.29656C53.5845 4.91553 54.892 4.46303 56.1683 3.9413C56.7759 3.7003 57.426 3.39409 58.0549 3.13041C59.021 2.72497 59.9172 2.36205 60.8134 1.91124C61.102 1.76665 61.421 1.62772 61.6823 1.5058C62.378 1.1684 62.8732 0.848017 63.7147 0.692077C64.3653 0.600777 65.0268 0.600777 65.6773 0.692077L65.8687 0.711924C67.4788 0.805488 69.2105 0.853688 70.9635 0.853688C72.7164 0.853688 74.4481 0.805488 76.0613 0.711924L76.2527 0.692077C76.9022 0.600764 77.5627 0.600764 78.2122 0.692077C79.0568 0.848017 79.552 1.1684 80.2446 1.5058C80.4998 1.62772 80.8279 1.76665 81.1165 1.91124C82.0097 2.36205 82.9059 2.72497 83.872 3.13041C84.5039 3.39409 85.145 3.69747 85.7586 3.9413C87.036 4.46304 88.3445 4.91554 89.6777 5.29656C91.537 5.80407 93.4631 6.28607 94.6114 6.92117C95.273 7.38107 95.8594 7.92833 96.3522 8.54578C96.8474 9.18655 97.9654 11.0607 98.093 11.2563C99.0773 12.7618 100.289 14.5877 101.131 15.994C101.265 16.2124 105.059 22.6002 105.485 23.309C105.907 23.8761 106.712 24.8259 106.56 25.1718Z" fill="#4E4C42"/>
</g>
<rect x="55" y="14" width="32" height="32" fill="url(#paint0_linear)"/>
<path fill-rule="evenodd" clip-rule="evenodd" d="M78.5162 25.1081C77.0616 22.6888 75.9243 20.5562 74.4867 18.1778C74.355 17.9636 71.7868 13.9 70.6158 12.1579C69.7923 10.9294 68.9621 9.44883 67.8755 8.24548C67.5181 7.88961 67.1371 7.55504 66.7348 7.24374C66.3421 6.97495 65.9132 6.75569 65.4591 6.59166C64.4028 6.2042 62.6749 5.75373 61.2676 5.38831C58.2067 4.58818 55.193 3.30923 52.4021 2.07753C50.7417 1.3404 49.5842 0.452061 47.8866 0.121298C47.3431 -0.031372 46.7647 -0.0400967 46.2161 0.0960966L46.0204 0.127598C44.1575 0.244153 42.0786 0.300855 39.9964 0.300855C37.9142 0.300855 35.8353 0.244153 33.9724 0.127598L33.7767 0.0960966C33.2281 -0.0400967 32.6498 -0.031372 32.1062 0.121298C30.4188 0.452061 29.2511 1.3404 27.5907 2.07753C24.8166 3.30923 21.7861 4.59763 18.7252 5.38831C17.3179 5.75373 15.59 6.2042 14.5337 6.59166C14.0796 6.75569 13.6507 6.97495 13.258 7.24374C12.8557 7.55504 12.4747 7.88961 12.1173 8.24548C11.0307 9.44883 10.2038 10.9294 9.37702 12.1579C8.19922 13.9094 5.62088 17.9731 5.50277 18.1873C4.06511 20.5562 2.92781 22.6888 1.47328 25.1176C0.862442 26.1382 -0.163491 27.2943 0.0221216 28.1259C0.207735 28.9576 3.46777 30.331 3.56902 30.3846C5.06742 31.1564 6.24184 31.7927 7.59851 32.492C8.1351 32.7661 11.8102 34.9334 12.7585 34.7475C13.7069 34.5617 13.7136 33.415 14.3717 32.9425C15.1001 32.4069 15.7462 31.7805 16.2919 31.0808C16.5147 30.8287 17.1323 29.8617 17.2706 29.6317C17.4967 29.2568 17.6284 28.6646 18.0232 28.3716C18.1379 28.2929 18.2594 28.2834 18.2932 28.4536C18.688 30.3058 18.5598 32.0006 18.5598 33.8277V63.6216C18.5598 67.7167 18.8973 71.708 18.5598 75.507C18.5359 75.912 18.4829 76.3151 18.4012 76.7135C18.3236 77.0285 17.9962 77.2774 18.2392 77.7657C19.4575 80.1283 31.3502 79.8573 32.2817 79.8794C34.8937 79.9424 37.4586 79.9896 40.0099 79.9991C42.5612 80.0085 45.1261 79.9424 47.7415 79.8794C48.6527 79.8573 60.5421 80.1156 61.7637 77.772C62.0067 77.2837 61.6794 77.0411 61.6018 76.7198C61.5201 76.3214 61.4671 75.9183 61.4431 75.5133C61.1057 71.7143 61.4431 67.7167 61.4431 63.6279V33.8214C61.4431 31.9943 61.3149 30.2995 61.7097 28.4473C61.7469 28.2771 61.8684 28.2866 61.9797 28.3653C62.3746 28.6426 62.5062 29.2348 62.7323 29.6254C62.8707 29.8554 63.4916 30.8224 63.711 31.0745C64.2568 31.7751 64.9042 32.4017 65.6346 32.9362C66.2893 33.4087 66.3366 34.5648 67.2444 34.7412C68.1522 34.9176 71.8678 32.7598 72.4044 32.4857C73.7543 31.7864 74.9355 31.1501 76.4339 30.3783C76.5385 30.3247 79.8087 28.9513 79.9808 28.1196C80.1529 27.288 79.127 26.1288 78.5162 25.1081Z" fill="white"/>
<g style="mix-blend-mode:multiply">
<path fill-rule="evenodd" clip-rule="evenodd" d="M14.535 16.2878C15.1391 18.2504 15.7938 21.1485 16.5599 23.0953C17.326 25.042 17.0358 28.504 16.0335 30.3406C15.6555 31.0304 15.021 31.4337 14.4304 32.0983C14.2046 32.3506 13.9474 32.5769 13.6644 32.7725C14.0356 32.1204 14.4439 31.5723 14.7915 30.9674C15.2741 30.1358 15.966 29.2758 15.7601 27.8173C15.5711 26.4754 14.3157 25.2972 13.6644 24.0561C13.3269 23.426 13.3539 22.1187 13.3438 20.9059C13.823 22.1093 13.8196 23.741 14.9974 24.3175C15.1189 24.3742 15.1223 24.2955 15.1256 24.264C15.3686 21.747 14.0862 18.9465 14.535 16.2878Z" fill="#E4E3E1"/>
</g>
<g style="mix-blend-mode:multiply">
<path fill-rule="evenodd" clip-rule="evenodd" d="M65.4455 16.2878C64.8414 18.2504 64.1901 21.1485 63.4206 23.0953C62.6512 25.042 62.9448 28.504 63.9471 30.3406C64.325 31.0304 64.9595 31.4337 65.5535 32.0983C65.7772 32.3514 66.0333 32.5778 66.3162 32.7725C65.9449 32.1204 65.54 31.5723 65.189 30.9674C64.7064 30.1358 64.0146 29.2758 64.2204 27.8173C64.4094 26.4754 65.6648 25.2972 66.3162 24.0561C66.6536 23.426 66.6267 22.1187 66.6536 20.9059C66.1711 22.1093 66.1744 23.741 64.9966 24.3175C64.8751 24.3742 64.8718 24.2955 64.8684 24.264C64.6119 21.747 65.8943 18.9465 65.4455 16.2878Z" fill="#E4E3E1"/>
</g>
<g style="mix-blend-mode:multiply">
<path fill-rule="evenodd" clip-rule="evenodd" d="M78.5162 25.1081C77.0616 22.6888 75.9243 20.5562 74.4867 18.1778C74.355 17.9636 71.7868 13.9 70.6158 12.1579C69.7923 10.9294 68.9621 9.44883 67.8755 8.24548C67.5181 7.88961 67.1371 7.55504 66.7348 7.24374C66.3421 6.97495 65.9132 6.75569 65.4591 6.59166C64.4028 6.2042 62.6749 5.75373 61.2676 5.38831C58.2067 4.58818 55.193 3.30923 52.4021 2.07753C50.7417 1.3404 49.5842 0.452061 47.8866 0.121298C47.3431 -0.031372 46.7647 -0.0400967 46.2161 0.0960966L46.0204 0.127598C44.1575 0.244153 42.0786 0.300855 39.9964 0.300855C37.9142 0.300855 35.8353 0.244153 33.9724 0.127598L33.7767 0.0960966C33.2281 -0.0400967 32.6498 -0.031372 32.1062 0.121298C30.4188 0.452061 29.2511 1.3404 27.5907 2.07753C24.8166 3.30923 21.7861 4.59763 18.7252 5.38831C17.3179 5.75373 15.59 6.2042 14.5337 6.59166C14.0796 6.75569 13.6507 6.97495 13.258 7.24374C12.8557 7.55504 12.4747 7.88961 12.1173 8.24548C11.0307 9.44883 10.2038 10.9294 9.37702 12.1579C8.19922 13.9094 5.62088 17.9731 5.50277 18.1873C4.06511 20.5562 2.92781 22.6888 1.47328 25.1176C0.862442 26.1382 -0.163491 27.2943 0.0221216 28.1259C0.207735 28.9576 3.46777 30.331 3.56902 30.3846C5.06742 31.1564 6.24184 31.7927 7.59851 32.492C8.1351 32.7661 11.8102 34.9334 12.7585 34.7475C13.7069 34.5617 13.7136 33.415 14.3717 32.9425C15.1001 32.4069 15.7462 31.7805 16.2919 31.0808C16.5147 30.8287 17.1323 29.8617 17.2706 29.6317C17.4967 29.2568 17.6284 28.6646 18.0232 28.3716C18.1379 28.2929 18.2594 28.2834 18.2932 28.4536C18.688 30.3058 18.5598 32.0006 18.5598 33.8277V63.6216C18.5598 67.7167 18.8973 71.708 18.5598 75.507C18.5359 75.912 18.4829 76.3151 18.4012 76.7135C18.3236 77.0285 17.9962 77.2774 18.2392 77.7657C19.4575 80.1283 31.3502 79.8573 32.2817 79.8794C34.8937 79.9424 37.4586 79.9896 40.0099 79.9991C42.5612 80.0085 45.1261 79.9424 47.7415 79.8794C48.6527 79.8573 60.5421 80.1156 61.7637 77.772C62.0067 77.2837 61.6794 77.0411 61.6018 76.7198C61.5201 76.3214 61.4671 75.9183 61.4431 75.5133C61.1057 71.7143 61.4431 67.7167 61.4431 63.6279V33.8214C61.4431 31.9943 61.3149 30.2995 61.7097 28.4473C61.7469 28.2771 61.8684 28.2866 61.9797 28.3653C62.3746 28.6426 62.5062 29.2348 62.7323 29.6254C62.8707 29.8554 63.4916 30.8224 63.711 31.0745C64.2568 31.7751 64.9042 32.4017 65.6346 32.9362C66.2893 33.4087 66.3366 34.5648 67.2444 34.7412C68.1522 34.9176 71.8678 32.7598 72.4044 32.4857C73.7543 31.7864 74.9355 31.1501 76.4339 30.3783C76.5385 30.3247 79.8087 28.9513 79.9808 28.1196C80.1529 27.288 79.127 26.1288 78.5162 25.1081ZM79.4813 27.9653C79.2012 28.5953 77.6016 29.1056 76.5824 29.6222C73.6295 31.1217 70.7474 32.7535 67.6899 34.0923C67.3962 34.2214 67.187 34.2372 67.0318 34.0167C66.7813 33.635 66.5559 33.2394 66.3568 32.8322C66.2914 32.722 66.217 32.6167 66.1341 32.5172C65.9441 32.3642 65.767 32.1978 65.6042 32.0195C65.017 31.3548 64.3691 30.7594 63.9911 30.0633C62.9787 28.2362 62.7323 24.9128 63.5085 22.9912C64.2341 21.1862 65.7494 16.2941 65.4288 15.4309C65.3849 15.3175 65.2836 15.2829 65.2566 15.4309C64.7403 17.8912 64.3691 20.3073 63.1845 22.6762C62.6479 23.7567 61.9628 24.6797 61.5714 25.8263C60.1945 29.9215 60.7682 35.6988 60.7682 41.1738V63.8956C60.7682 67.8396 60.4577 71.8056 60.7682 75.3306C60.8159 76.0505 60.9786 76.7598 61.2508 77.4349C59.9009 78.5847 57.687 78.8682 55.2875 79.0919C52.8881 79.3155 46.0204 79.3407 39.9795 79.3187C33.9387 79.2966 27.0541 79.3187 24.6749 79.0919C22.2957 78.865 20.0616 78.5847 18.7083 77.4349C18.9802 76.7596 19.144 76.0505 19.1943 75.3306C19.5014 71.8056 19.1943 67.8396 19.1943 63.8956V41.2084C19.1943 35.7335 19.7646 29.9499 18.3877 25.861C17.9962 24.7049 17.3111 23.7819 16.7745 22.7109C15.5934 20.3325 15.2221 17.9164 14.7058 15.4656C14.6754 15.3238 14.5742 15.3585 14.5303 15.4656C14.1928 16.3161 15.725 21.2083 16.4506 23.0259C17.2268 24.9475 16.9703 28.2708 15.968 30.0979C15.59 30.7909 14.9555 31.3895 14.3582 32.0541C14.1937 32.2309 14.0167 32.3972 13.8284 32.5519C13.7431 32.6504 13.6675 32.7558 13.6022 32.8669C13.4045 33.2747 13.1791 33.6703 12.9273 34.0513C12.772 34.2718 12.5628 34.2561 12.2692 34.1269C9.21165 32.7881 6.32959 31.1564 3.37665 29.6569C2.36422 29.1403 0.757823 28.6394 0.477716 27.9999C0.305603 27.6156 1.20329 26.5603 1.60489 25.8956C2.08074 25.1081 6.29584 18.0203 6.44096 17.7683C7.38589 16.1933 8.73243 14.1772 9.81574 12.5045C9.95748 12.2871 11.1994 10.2049 11.7495 9.49293C12.3054 8.79214 12.9696 8.17217 13.7204 7.65325C14.9994 6.94763 17.139 6.41525 19.2078 5.84823C20.6876 5.42489 22.1401 4.92213 23.5578 4.34247C24.2328 4.07471 24.955 3.73449 25.6536 3.44153C26.7268 2.99106 27.7223 2.58785 28.7179 2.08698C29.0351 1.92632 29.3928 1.77197 29.6831 1.63651C30.4559 1.26164 31.0026 0.905679 31.9408 0.732422C32.6634 0.630936 33.3983 0.630936 34.1209 0.732422L34.3335 0.754473C36.1222 0.858427 38.0458 0.911979 39.993 0.911979C41.9403 0.911979 43.8639 0.858427 45.6559 0.754473L45.8685 0.732422C46.59 0.630968 47.3237 0.630968 48.0453 0.732422C48.9834 0.905679 49.5302 1.26164 50.303 1.63651C50.5831 1.77197 50.9509 1.92632 51.2682 2.08698C52.2806 2.58785 53.2593 2.99106 54.3325 3.44153C55.0311 3.73449 55.7465 4.07156 56.4282 4.34247C57.8471 4.92214 59.3007 5.4249 60.7817 5.84823C62.847 6.4121 64.9867 6.94763 66.2623 7.65325C66.9973 8.16422 67.6487 8.77226 68.1961 9.45828C68.7462 10.1702 69.9881 12.2524 70.1298 12.4698C71.2232 14.1425 72.5698 16.1712 73.5046 17.7337C73.6497 17.9762 77.8648 25.0735 78.3407 25.861C78.7524 26.5257 79.6501 27.581 79.478 27.9653H79.4813Z" fill="#4E4C42"/>
</g>
<g style="mix-blend-mode:multiply">
<path d="M31.0039 2.87122C31.2381 3.70301 31.6904 4.46731 32.3201 5.09521C32.8755 5.75864 33.5837 6.29695 34.3922 6.67027C36.0155 7.42945 37.8986 7.61531 39.7311 7.56806C41.5729 7.54751 43.3941 7.20451 45.1004 6.55687C45.9359 6.22156 46.6988 5.74648 47.3513 5.15506C48.07 4.61763 48.6164 3.90598 48.9307 3.09803C48.8744 3.53828 48.7326 3.96526 48.5123 4.35808C48.2934 4.76316 48.0226 5.14186 47.7057 5.48582C47.0093 6.11343 46.1962 6.61729 45.3062 6.97268C43.5398 7.64255 41.6545 7.9973 39.748 8.01853C37.8648 8.07208 35.9041 7.88307 34.1627 7.07349C33.2894 6.66785 32.5222 6.08824 31.9151 5.37557C31.648 4.99672 31.4326 4.58825 31.2739 4.15962C31.1108 3.74635 31.0197 3.31138 31.0039 2.87122V2.87122Z" fill="#4E4C42"/>
</g>
<g style="mix-blend-mode:multiply">
<path d="M30.998 2.89342C30.932 2.70659 30.9012 2.51047 30.9069 2.3138C30.9102 2.20228 30.9451 2.09357 31.0082 1.99879C31.0422 1.94782 31.087 1.90387 31.1398 1.86963L31.2579 1.78143C31.4397 1.652 31.651 1.56359 31.8755 1.52312C32.0864 1.47907 32.3009 1.45167 32.5167 1.44121C33.3449 1.47586 34.17 1.55898 34.987 1.69007C36.5981 1.88428 38.2227 1.96326 39.8467 1.92633C41.4734 1.91058 43.1101 1.85073 44.73 1.72787C45.1114 1.70267 45.5197 1.61447 45.9281 1.56407C46.3364 1.51367 46.7482 1.45381 47.1666 1.43176C47.3826 1.43566 47.5979 1.45355 47.8112 1.48531C48.0346 1.50656 48.2513 1.56864 48.4491 1.66802C48.6186 1.79445 48.7581 1.95246 48.8586 2.13198C48.9591 2.3115 49.0185 2.5086 49.0329 2.71072C48.9226 2.35867 48.6728 2.05905 48.3343 1.87278C48.1549 1.82327 47.9673 1.80511 47.7808 1.81923C47.5852 1.82473 47.3901 1.84262 47.197 1.87278C46.8022 1.90113 46.4006 1.94208 45.999 2.00194C45.5974 2.06179 45.2025 2.13739 44.7705 2.16889C43.127 2.29175 41.4936 2.3516 39.8501 2.36735C38.2012 2.40434 36.5518 2.32325 34.9162 2.12479C34.1204 1.99882 33.3166 1.922 32.51 1.89483C32.1369 1.82713 31.751 1.85878 31.3963 1.98618L31.2579 2.05549C31.2221 2.07018 31.1899 2.09163 31.1634 2.11849C31.104 2.18028 31.0622 2.25503 31.0419 2.33585C30.9951 2.51827 30.9803 2.70657 30.998 2.89342V2.89342Z" fill="#4E4C42"/>
</g>
<g style="mix-blend-mode:multiply">
<path fill-rule="evenodd" clip-rule="evenodd" d="M48.7114 3.08869C48.7991 2.93433 48.6439 2.88078 48.5393 2.83983C47.2062 2.30746 45.016 2.73588 43.0586 2.83983C40.9105 2.95028 38.7575 2.95028 36.6094 2.83983C34.8984 2.73903 32.3909 2.1342 31.4393 2.87763C31.4393 2.87763 31.257 3.19264 31.0039 2.87763C31.0411 3.01421 31.0861 3.14881 31.1389 3.28085C31.1453 3.31411 31.1579 3.34609 31.176 3.37535C31.433 4.01497 31.8217 4.60143 32.3201 5.10162C32.8755 5.76505 33.5837 6.30336 34.3922 6.67669C36.0155 7.43587 37.8986 7.62173 39.7311 7.57447C41.5733 7.55192 43.3946 7.20678 45.1004 6.55698C45.9359 6.22168 46.6988 5.7466 47.3513 5.15517C48.07 4.61775 48.6164 3.9061 48.9307 3.09814C48.9307 3.09814 48.5528 3.3596 48.7114 3.08869Z" fill="#E4E3E1"/>
</g>
<g style="mix-blend-mode:multiply">
<path d="M29.4578 2.63525C29.5017 3.76232 29.8713 4.85732 30.5276 5.80428C31.1772 6.7292 32.0648 7.48734 33.1093 8.00937C34.1564 8.52856 35.2853 8.88903 36.4537 9.07727C37.6306 9.27635 38.8248 9.37337 40.0209 9.36708C41.2151 9.38506 42.4084 9.29646 43.5846 9.10247C44.7531 8.9186 45.8817 8.55789 46.9257 8.03457C47.9657 7.50821 48.8467 6.74545 49.4871 5.81688C50.1351 4.86206 50.5017 3.76461 50.5502 2.63525C50.6002 3.20658 50.5536 3.78171 50.4118 4.33947C50.2771 4.90466 50.0614 5.45034 49.7706 5.96179C49.1645 6.99372 48.2745 7.85605 47.1923 8.45984C46.116 9.05691 44.9362 9.47375 43.7061 9.69154C42.4906 9.90938 41.2551 10.0149 40.0175 10.0066C38.7781 10.0074 37.5416 9.8956 36.3255 9.67264C35.0972 9.4506 33.9183 9.03516 32.8393 8.44409C31.7588 7.8463 30.8661 6.99341 30.2509 5.97124C29.9569 5.46015 29.7378 4.91449 29.5995 4.34892C29.4537 3.78855 29.4059 3.20987 29.4578 2.63525V2.63525Z" fill="#E4E3E1"/>
</g>
<rect x="24" y="27" width="32" height="32" fill="url(#paint1_linear)"/>
<defs>
<linearGradient id="paint0_linear" x1="71" y1="14" x2="71" y2="46" gradientUnits="userSpaceOnUse">
<stop stop-color="#8586AD" stop-opacity="0.8"/>
<stop offset="1" stop-color="#8586AD" stop-opacity="0.5"/>
</linearGradient>
<linearGradient id="paint1_linear" x1="40" y1="27" x2="40" y2="59" gradientUnits="userSpaceOnUse">
<stop stop-color="#8586AD" stop-opacity="0.8"/>
<stop offset="1" stop-color="#8586AD" stop-opacity="0.5"/>
</linearGradient>
</defs>
</svg>
