<svg width="50" height="34" viewBox="0 0 50 34" fill="none" xmlns="http://www.w3.org/2000/svg">
<path d="M48.3903 14.5357L42.8793 8.62498C42.4228 8.13534 41.7677 7.85578 41.0801 7.85712H33.8V3.28571C33.7986 2.02393 32.7249 1.00134 31.4 1H3.4C2.07513 1.00134 1.00141 2.02393 1 3.28571V23.0952C0.999906 23.2973 1.08419 23.4911 1.23428 23.634C1.38428 23.7769 1.58781 23.8572 1.80006 23.8572H2.60003V26.1429C2.60144 27.4047 3.67516 28.4272 5.00003 28.4286H6.66391C7.05822 31.0518 9.41753 33 12.2 33C14.9825 33 17.3418 31.0518 17.7362 28.4286H32.264C32.6583 31.0518 35.0177 33 37.8002 33C40.5827 33 42.942 31.0518 43.3363 28.4286H46.6C47.9249 28.4272 48.9986 27.4047 49 26.1429V16.055C48.9994 15.4944 48.7824 14.9537 48.3903 14.5357ZM2.60003 22.3332V3.28571C2.6005 2.86508 2.95834 2.52419 3.4 2.52383H31.4C31.8417 2.52428 32.1996 2.86508 32.2 3.28571V22.3332H2.60003ZM6.66391 26.9047H5.00003C4.55837 26.9042 4.20044 26.5634 4.20006 26.1428V23.8571H8.2885C7.40969 24.6751 6.83866 25.7463 6.66391 26.9047ZM12.2 31.4761C9.99091 31.4761 8.2 29.7705 8.2 27.6665C8.2 25.5626 9.99091 23.8571 12.2 23.8571C14.4092 23.8571 16.2001 25.5627 16.2001 27.6666C16.1974 29.7695 14.408 31.4737 12.2 31.4761ZM20.2 26.9047H17.7361C17.5613 25.7463 16.9904 24.675 16.1116 23.8571H20.2V26.9047ZM27.4 26.9047H21.8V23.8571H27.4V26.9047ZM32.2639 26.9047H29V23.8571H33.8884C33.0096 24.6751 32.4387 25.7463 32.2639 26.9047ZM37.8 31.4761C35.5908 31.4761 33.7999 29.7705 33.7999 27.6665C33.7999 25.5626 35.5907 23.857 37.8 23.857C40.0091 23.857 41.8 25.5626 41.8 27.6665C41.7974 29.7695 40.0081 31.4737 37.8 31.4761ZM47.4 26.1428C47.3995 26.5634 47.0417 26.9043 46.6 26.9047H43.3361C42.9372 24.2839 40.5807 22.338 37.8 22.3332H33.7999V9.38096H37V17C37.0014 18.2617 38.0751 19.2843 39.4 19.2857H47.4V26.1428ZM47.4 17.7618H39.4C38.9583 17.7614 38.6004 17.4206 38.6 17V9.38096H41.0801C41.3098 9.37971 41.529 9.47239 41.6821 9.63542L47.1949 15.5484C47.3262 15.6876 47.3991 15.8679 47.4001 16.055L47.4 17.7618Z" fill="#52537A" stroke="#52537A" stroke-width="0.5"/>
</svg>
