<svg width="1440" height="538" viewBox="0 0 1440 538" fill="none" xmlns="http://www.w3.org/2000/svg">
<path d="M-720 42.9026C-720 42.9026 -540 -121.458 -360 -121.458C-180 -121.458 2.86102e-05 42.9026 2.86102e-05 42.9026C2.86102e-05 42.9026 180 207.264 360 207.264C540 207.264 720 42.9026 720 42.9026C720 42.9026 900 -121.458 1080 -121.458C1260 -121.458 1440 42.9026 1440 42.9026C1440 42.9026 1620 207.264 1800 207.264C1980 207.264 2160 42.9026 2160 42.9026" stroke="white" stroke-opacity="0.1" stroke-width="2.5"/>
<path d="M-720 -121.458C-720 -121.458 -540 -285.819 -360 -285.819C-180 -285.819 2.86102e-05 -121.458 2.86102e-05 -121.458C2.86102e-05 -121.458 180 42.9028 360 42.9028C540 42.9028 720 -121.458 720 -121.458C720 -121.458 900 -285.819 1080 -285.819C1260 -285.819 1440 -121.458 1440 -121.458C1440 -121.458 1620 42.9028 1800 42.9028C1980 42.9028 2160 -121.458 2160 -121.458" stroke="white" stroke-opacity="0.1" stroke-width="2.5"/>
<path d="M-720 207.264C-720 207.264 -540 42.9028 -360 42.9028C-180 42.9028 2.86102e-05 207.264 2.86102e-05 207.264C2.86102e-05 207.264 180 371.625 360 371.625C540 371.625 720 207.264 720 207.264C720 207.264 900 42.9028 1080 42.9028C1260 42.9028 1440 207.264 1440 207.264C1440 207.264 1620 371.625 1800 371.625C1980 371.625 2160 207.264 2160 207.264" stroke="white" stroke-opacity="0.1" stroke-width="2.5"/>
<path d="M-720 371.625C-720 371.625 -540 207.264 -360 207.264C-180 207.264 2.86102e-05 371.625 2.86102e-05 371.625C2.86102e-05 371.625 180 535.986 360 535.986C540 535.986 720 371.625 720 371.625C720 371.625 900 207.264 1080 207.264C1260 207.264 1440 371.625 1440 371.625C1440 371.625 1620 535.986 1800 535.986C1980 535.986 2160 371.625 2160 371.625" stroke="white" stroke-opacity="0.05" stroke-width="2.5"/>
</svg>
