<svg width="29" height="26" viewBox="0 0 29 26" fill="none" xmlns="http://www.w3.org/2000/svg">
<path d="M9.38063 17.434H9.38195C9.38305 17.434 9.38415 17.4338 9.38524 17.4338H24.6829C25.0595 17.4338 25.3906 17.1801 25.4941 16.8125L28.8691 4.81965C28.9418 4.5611 28.8908 4.28314 28.7315 4.06854C28.572 3.85394 28.3226 3.72767 28.0579 3.72767H7.43473L6.83158 0.971952C6.74567 0.579999 6.40333 0.301147 6.00782 0.301147H0.945314C0.479273 0.301147 0.101562 0.684624 0.101562 1.15778C0.101562 1.63093 0.479273 2.01441 0.945314 2.01441H5.33106C5.43785 2.50273 8.2174 15.2018 8.37736 15.9324C7.48065 16.3282 6.85157 17.2359 6.85157 18.2904C6.85157 19.7074 7.98712 20.8603 9.38283 20.8603H24.6829C25.1489 20.8603 25.5266 20.4768 25.5266 20.0037C25.5266 19.5305 25.1489 19.147 24.6829 19.147H9.38283C8.91767 19.147 8.53908 18.7627 8.53908 18.2904C8.53908 17.8188 8.91635 17.4351 9.38063 17.434ZM26.9392 5.44094L24.0463 15.7205H10.0596L7.80958 5.44094H26.9392Z" fill="#353678"/>
<path d="M8.53906 23.4299C8.53906 24.8469 9.67461 25.9998 11.0703 25.9998C12.466 25.9998 13.6016 24.8469 13.6016 23.4299C13.6016 22.0129 12.466 20.86 11.0703 20.86C9.67461 20.86 8.53906 22.0129 8.53906 23.4299ZM11.0703 22.5732C11.5355 22.5732 11.9141 22.9576 11.9141 23.4299C11.9141 23.9021 11.5355 24.2865 11.0703 24.2865C10.6052 24.2865 10.2266 23.9021 10.2266 23.4299C10.2266 22.9576 10.6052 22.5732 11.0703 22.5732Z" fill="#353678"/>
<path d="M20.4648 23.4299C20.4648 24.8469 21.6004 25.9998 22.9961 25.9998C24.3918 25.9998 25.5274 24.8469 25.5274 23.4299C25.5274 22.0129 24.3918 20.86 22.9961 20.86C21.6004 20.86 20.4648 22.0129 20.4648 23.4299ZM22.9961 22.5732C23.4613 22.5732 23.8398 22.9576 23.8398 23.4299C23.8398 23.9021 23.4613 24.2865 22.9961 24.2865C22.5309 24.2865 22.1523 23.9021 22.1523 23.4299C22.1523 22.9576 22.5309 22.5732 22.9961 22.5732Z" fill="#353678"/>
</svg>
