<svg width="112" height="112" viewBox="0 0 112 112" fill="none" xmlns="http://www.w3.org/2000/svg">
<rect width="112" height="112" rx="56" fill="#45469B"/>
<path d="M79.5156 34H31.4844C30.1147 34 29 35.1174 29 36.4904V68.0369C29 69.4099 30.1147 70.5273 31.4844 70.5273H79.5156C80.8853 70.5273 82 69.4099 82 68.0369V36.4904C82 35.1174 80.8853 34 79.5156 34ZM30.6563 66.3766V63.8862H33.9712V66.3766H30.6563ZM33.9712 62.226H30.6563V59.7356H33.9712V62.226ZM33.9712 44.7917H30.6563V42.3013H33.9712V44.7917ZM33.9712 46.4519V49.4055C33.4818 49.1183 32.9195 48.9423 32.3125 48.9423C31.7071 48.9423 31.1457 49.1183 30.6563 49.4047V46.4519H33.9712ZM32.3125 50.6025C33.2259 50.6025 33.9688 51.3472 33.9688 52.2628C33.9688 53.1784 33.2259 53.9231 32.3125 53.9231C31.3991 53.9231 30.6563 53.1784 30.6563 52.2628C30.6563 51.3472 31.3991 50.6025 32.3125 50.6025ZM32.3125 55.5833C32.9195 55.5833 33.4818 55.4073 33.9712 55.1201V58.0754H30.6563V55.1209C31.1457 55.4073 31.7071 55.5833 32.3125 55.5833ZM35.6275 38.1506H77.8594V66.3766H35.6275V38.1506ZM33.9712 40.641H30.6563V38.1506H33.9712V40.641ZM80.3438 68.0369C80.3438 68.4951 79.9727 68.867 79.5156 68.867H31.4844C31.0273 68.867 30.6563 68.4951 30.6563 68.0369H78.6875C79.1455 68.0369 79.5156 67.6658 79.5156 67.2068V37.3205C79.5156 36.8614 79.1455 36.4904 78.6875 36.4904H30.6563C30.6563 36.0322 31.0273 35.6603 31.4844 35.6603H79.5156C79.9727 35.6603 80.3438 36.0322 80.3438 36.4904V68.0369Z" fill="white"/>
<path d="M68.751 43.9616H66.2666C65.8086 43.9616 65.4385 44.3326 65.4385 44.7917V47.2821C65.4385 47.7411 65.8086 48.1122 66.2666 48.1122H66.6417C66.2732 52.5858 62.9549 56.2649 58.5452 57.0718C58.1907 56.4342 57.5208 55.9984 56.7432 55.9984C55.9655 55.9984 55.2956 56.4342 54.9412 57.0709C50.5314 56.2641 47.2131 52.5858 46.8446 48.1122H47.2197C47.6777 48.1122 48.0478 47.7411 48.0478 47.2821V44.7917C48.0478 44.3326 47.6777 43.9616 47.2197 43.9616H44.7353C44.2774 43.9616 43.9072 44.3326 43.9072 44.7917V47.2821C43.9072 47.7411 44.2774 48.1122 44.7353 48.1122H45.1883C45.4608 51.9723 47.6131 55.3376 50.7815 57.2436H47.8723C47.5518 56.5114 46.8239 55.9984 45.9775 55.9984C44.8355 55.9984 43.9072 56.929 43.9072 58.0737C43.9072 59.2185 44.8355 60.1491 45.9775 60.1491C46.8239 60.1491 47.5518 59.636 47.8723 58.9039H54.8484C55.1689 59.636 55.8968 60.1491 56.7432 60.1491C57.5895 60.1491 58.3174 59.636 58.6379 58.9039H65.6132C65.9337 59.636 66.6608 60.1491 67.508 60.1491C68.6499 60.1491 69.5783 59.2185 69.5783 58.0737C69.5783 56.929 68.6499 55.9984 67.508 55.9984C66.6608 55.9984 65.9337 56.5114 65.6132 57.2436H62.7057C65.8732 55.3376 68.0255 51.9723 68.298 48.1122H68.751C69.2089 48.1122 69.5791 47.7411 69.5791 47.2821V44.7917C69.5791 44.3326 69.2089 43.9616 68.751 43.9616ZM45.5635 45.6218H46.3916V46.4519H45.5635V45.6218ZM45.9775 58.4888C45.7498 58.4888 45.5635 58.302 45.5635 58.0737C45.5635 57.8455 45.7498 57.6587 45.9775 57.6587C46.2053 57.6587 46.3916 57.8455 46.3916 58.0737C46.3916 58.302 46.2053 58.4888 45.9775 58.4888ZM56.7432 58.4888C56.5154 58.4888 56.3291 58.302 56.3291 58.0737C56.3291 57.8455 56.5154 57.6587 56.7432 57.6587C56.9709 57.6587 57.1572 57.8455 57.1572 58.0737C57.1572 58.302 56.9709 58.4888 56.7432 58.4888ZM67.508 57.6587C67.7357 57.6587 67.922 57.8455 67.922 58.0737C67.922 58.302 67.7357 58.4888 67.508 58.4888C67.2802 58.4888 67.0939 58.302 67.0939 58.0737C67.0939 57.8455 67.2802 57.6587 67.508 57.6587ZM67.0947 45.6218H67.9228V46.4519H67.0947V45.6218Z" fill="white"/>
<path d="M39.5159 76.3397L41.7916 77.8605C41.8197 77.8788 41.8512 77.8871 41.8802 77.9029C41.9083 77.917 41.9348 77.9311 41.9655 77.9427C42.0582 77.9776 42.1543 78 42.2504 78H70.4074C71.7771 78 72.8918 76.8826 72.8918 75.5096C72.8918 74.1366 71.7771 73.0192 70.4074 73.0192H42.2512C42.2255 73.0192 42.2023 73.0317 42.1775 73.0342C42.122 73.0392 42.0698 73.0516 42.016 73.0674C41.9613 73.084 41.91 73.1039 41.8603 73.1305C41.8379 73.1429 41.8131 73.1446 41.7916 73.1587L39.5159 74.6795H38.9387C38.4807 74.6795 38.1106 75.0506 38.1106 75.5096C38.1106 75.9687 38.4807 76.3397 38.9387 76.3397H39.5159ZM42.5021 74.6795H43.0793V76.3397H42.5021L41.2599 75.5096L42.5021 74.6795ZM44.7356 74.6795H61.2981V76.3397H44.7356V74.6795ZM70.4074 76.3397H62.9543V74.6795H70.4074C70.8646 74.6795 71.2356 75.0514 71.2356 75.5096C71.2356 75.9678 70.8646 76.3397 70.4074 76.3397Z" fill="white"/>
<path d="M79.5156 34H31.4844C30.1147 34 29 35.1174 29 36.4904V68.0369C29 69.4099 30.1147 70.5273 31.4844 70.5273H79.5156C80.8853 70.5273 82 69.4099 82 68.0369V36.4904C82 35.1174 80.8853 34 79.5156 34ZM30.6563 66.3766V63.8862H33.9712V66.3766H30.6563ZM33.9712 62.226H30.6563V59.7356H33.9712V62.226ZM33.9712 44.7917H30.6563V42.3013H33.9712V44.7917ZM33.9712 46.4519V49.4055C33.4818 49.1183 32.9195 48.9423 32.3125 48.9423C31.7071 48.9423 31.1457 49.1183 30.6563 49.4047V46.4519H33.9712ZM32.3125 50.6025C33.2259 50.6025 33.9688 51.3472 33.9688 52.2628C33.9688 53.1784 33.2259 53.9231 32.3125 53.9231C31.3991 53.9231 30.6563 53.1784 30.6563 52.2628C30.6563 51.3472 31.3991 50.6025 32.3125 50.6025ZM32.3125 55.5833C32.9195 55.5833 33.4818 55.4073 33.9712 55.1201V58.0754H30.6563V55.1209C31.1457 55.4073 31.7071 55.5833 32.3125 55.5833ZM35.6275 38.1506H77.8594V66.3766H35.6275V38.1506ZM33.9712 40.641H30.6563V38.1506H33.9712V40.641ZM80.3438 68.0369C80.3438 68.4951 79.9727 68.867 79.5156 68.867H31.4844C31.0273 68.867 30.6563 68.4951 30.6563 68.0369H78.6875C79.1455 68.0369 79.5156 67.6658 79.5156 67.2068V37.3205C79.5156 36.8614 79.1455 36.4904 78.6875 36.4904H30.6563C30.6563 36.0322 31.0273 35.6603 31.4844 35.6603H79.5156C79.9727 35.6603 80.3438 36.0322 80.3438 36.4904V68.0369Z" stroke="#45469B" stroke-width="0.5"/>
<path d="M68.751 43.9616H66.2666C65.8086 43.9616 65.4385 44.3326 65.4385 44.7917V47.2821C65.4385 47.7411 65.8086 48.1122 66.2666 48.1122H66.6417C66.2732 52.5858 62.9549 56.2649 58.5452 57.0718C58.1907 56.4342 57.5208 55.9984 56.7432 55.9984C55.9655 55.9984 55.2956 56.4342 54.9412 57.0709C50.5314 56.2641 47.2131 52.5858 46.8446 48.1122H47.2197C47.6777 48.1122 48.0478 47.7411 48.0478 47.2821V44.7917C48.0478 44.3326 47.6777 43.9616 47.2197 43.9616H44.7353C44.2774 43.9616 43.9072 44.3326 43.9072 44.7917V47.2821C43.9072 47.7411 44.2774 48.1122 44.7353 48.1122H45.1883C45.4608 51.9723 47.6131 55.3376 50.7815 57.2436H47.8723C47.5518 56.5114 46.8239 55.9984 45.9775 55.9984C44.8355 55.9984 43.9072 56.929 43.9072 58.0737C43.9072 59.2185 44.8355 60.1491 45.9775 60.1491C46.8239 60.1491 47.5518 59.636 47.8723 58.9039H54.8484C55.1689 59.636 55.8968 60.1491 56.7432 60.1491C57.5895 60.1491 58.3174 59.636 58.6379 58.9039H65.6132C65.9337 59.636 66.6608 60.1491 67.508 60.1491C68.6499 60.1491 69.5783 59.2185 69.5783 58.0737C69.5783 56.929 68.6499 55.9984 67.508 55.9984C66.6608 55.9984 65.9337 56.5114 65.6132 57.2436H62.7057C65.8732 55.3376 68.0255 51.9723 68.298 48.1122H68.751C69.2089 48.1122 69.5791 47.7411 69.5791 47.2821V44.7917C69.5791 44.3326 69.2089 43.9616 68.751 43.9616ZM45.5635 45.6218H46.3916V46.4519H45.5635V45.6218ZM45.9775 58.4888C45.7498 58.4888 45.5635 58.302 45.5635 58.0737C45.5635 57.8455 45.7498 57.6587 45.9775 57.6587C46.2053 57.6587 46.3916 57.8455 46.3916 58.0737C46.3916 58.302 46.2053 58.4888 45.9775 58.4888ZM56.7432 58.4888C56.5154 58.4888 56.3291 58.302 56.3291 58.0737C56.3291 57.8455 56.5154 57.6587 56.7432 57.6587C56.9709 57.6587 57.1572 57.8455 57.1572 58.0737C57.1572 58.302 56.9709 58.4888 56.7432 58.4888ZM67.508 57.6587C67.7357 57.6587 67.922 57.8455 67.922 58.0737C67.922 58.302 67.7357 58.4888 67.508 58.4888C67.2802 58.4888 67.0939 58.302 67.0939 58.0737C67.0939 57.8455 67.2802 57.6587 67.508 57.6587ZM67.0947 45.6218H67.9228V46.4519H67.0947V45.6218Z" stroke="#45469B" stroke-width="0.5"/>
<path d="M39.5159 76.3397L41.7916 77.8605C41.8197 77.8788 41.8512 77.8871 41.8802 77.9029C41.9083 77.917 41.9348 77.9311 41.9655 77.9427C42.0582 77.9776 42.1543 78 42.2504 78H70.4074C71.7771 78 72.8918 76.8826 72.8918 75.5096C72.8918 74.1366 71.7771 73.0192 70.4074 73.0192H42.2512C42.2255 73.0192 42.2023 73.0317 42.1775 73.0342C42.122 73.0392 42.0698 73.0516 42.016 73.0674C41.9613 73.084 41.91 73.1039 41.8603 73.1305C41.8379 73.1429 41.8131 73.1446 41.7916 73.1587L39.5159 74.6795H38.9387C38.4807 74.6795 38.1106 75.0506 38.1106 75.5096C38.1106 75.9687 38.4807 76.3397 38.9387 76.3397H39.5159ZM42.5021 74.6795H43.0793V76.3397H42.5021L41.2599 75.5096L42.5021 74.6795ZM44.7356 74.6795H61.2981V76.3397H44.7356V74.6795ZM70.4074 76.3397H62.9543V74.6795H70.4074C70.8646 74.6795 71.2356 75.0514 71.2356 75.5096C71.2356 75.9678 70.8646 76.3397 70.4074 76.3397Z" stroke="#45469B" stroke-width="0.5"/>
</svg>
