<svg xmlns="http://www.w3.org/2000/svg">
    <svg id="facebook-logo" viewBox="0 0 26 26" fill="none" xmlns="http://www.w3.org/2000/svg">
    <path d="M18.9148 14.5146L19.6311 9.84466H15.1505V6.81418C15.1505 5.53658 15.7764 4.29127 17.7832 4.29127H19.8204V0.315555C19.8204 0.315555 17.9716 0 16.2041 0C12.5138 0 10.102 2.23651 10.102 6.28545V9.84466H6V14.5146H10.102V25.8037C10.9245 25.9328 11.7675 26 12.6262 26C13.485 26 14.328 25.9328 15.1505 25.8037V14.5146H18.9148Z" fill="#45469B"/>
    </svg>

    <symbol id="twitter-logo" viewBox="0 0 26 26" fill="none" xmlns="http://www.w3.org/2000/svg">
    <path d="M8.17649 23.1263C17.9878 23.1263 23.3542 14.9977 23.3542 7.94857C23.3542 7.71771 23.3542 7.48788 23.3387 7.25906C24.3826 6.50389 25.2838 5.56896 26 4.49788C25.0265 4.92927 23.9936 5.21212 22.9362 5.33714C24.0495 4.67069 24.8833 3.62165 25.2813 2.38665C24.2343 3.00796 23.0886 3.44589 21.8941 3.68147C20.8855 2.60892 19.4768 2 18.0046 2C15.0754 2 12.6652 4.41028 12.6652 7.33934C12.6652 7.74569 12.7116 8.15078 12.8034 8.54657C8.51657 8.33171 4.51694 6.30402 1.80959 2.97322C0.40173 5.39681 1.13019 8.53763 3.4611 10.0941C2.61229 10.0689 1.78171 9.83991 1.04 9.4264V9.49399C1.04071 12.0236 2.84004 14.2223 5.31959 14.7231C4.53431 14.9373 3.71018 14.9686 2.91098 14.8146C3.60806 16.9822 5.61818 18.4764 7.89466 18.5191C6.0061 20.0033 3.67184 20.8095 1.26984 20.8071C0.845406 20.8063 0.421383 20.7806 0 20.7302C2.43923 22.2955 5.2782 23.126 8.17649 23.1222" fill="#45469B"/>
    </symbol>

    <symbol id="instagram-logo" viewBox="0 0 26 26" fill="none" xmlns="http://www.w3.org/2000/svg">
    <path d="M13.0933 2C10.0805 2 9.70276 2.01277 8.51954 2.06676C7.33879 2.12066 6.53238 2.30816 5.82672 2.58241C5.09724 2.8659 4.47859 3.24522 3.86188 3.86193C3.24518 4.47864 2.86586 5.09728 2.58236 5.82677C2.30811 6.53238 2.12061 7.33879 2.06671 8.51954C2.01273 9.70276 2 10.0805 2 13.0933C2 16.1061 2.01273 16.4838 2.06671 17.667C2.12061 18.8478 2.30811 19.6542 2.58236 20.3598C2.86586 21.0893 3.24518 21.708 3.86188 22.3247C4.47859 22.9414 5.09724 23.3207 5.82672 23.6042C6.53238 23.8784 7.33879 24.066 8.51954 24.1198C9.70276 24.1738 10.0805 24.1866 13.0933 24.1866C16.1061 24.1866 16.4838 24.1738 17.667 24.1198C18.8478 24.066 19.6542 23.8784 20.3598 23.6042C21.0893 23.3207 21.708 22.9414 22.3247 22.3247C22.9414 21.708 23.3207 21.0893 23.6042 20.3598C23.8784 19.6542 24.066 18.8478 24.1198 17.667C24.1738 16.4838 24.1866 16.1061 24.1866 13.0933C24.1866 10.0805 24.1738 9.70276 24.1198 8.51954C24.066 7.33879 23.8784 6.53238 23.6042 5.82677C23.3207 5.09728 22.9414 4.47864 22.3247 3.86193C21.708 3.24522 21.0893 2.8659 20.3598 2.58241C19.6542 2.30816 18.8478 2.12066 17.667 2.06676C16.4838 2.01277 16.1061 2 13.0933 2ZM13.0933 3.99883C16.0553 3.99883 16.4062 4.01011 17.5759 4.06348C18.6575 4.11284 19.2449 4.29356 19.6358 4.44543C20.1536 4.64667 20.5232 4.8871 20.9113 5.27527C21.2995 5.66344 21.5399 6.03302 21.7412 6.55079C21.8931 6.94169 22.0738 7.52907 22.1231 8.61065C22.1765 9.7804 22.1878 10.1313 22.1878 13.0933C22.1878 16.0553 22.1765 16.4062 22.1231 17.5759C22.0738 18.6575 21.8931 19.2449 21.7412 19.6358C21.5399 20.1536 21.2995 20.5232 20.9113 20.9113C20.5232 21.2995 20.1536 21.5399 19.6358 21.7412C19.2449 21.8931 18.6575 22.0738 17.5759 22.1231C16.4064 22.1765 16.0555 22.1878 13.0933 22.1878C10.131 22.1878 9.78026 22.1765 8.61065 22.1231C7.52907 22.0738 6.94169 21.8931 6.55079 21.7412C6.03298 21.5399 5.66344 21.2995 5.27523 20.9113C4.88706 20.5232 4.64663 20.1536 4.44543 19.6358C4.29351 19.2449 4.11279 18.6575 4.06343 17.5759C4.01006 16.4062 3.99879 16.0553 3.99879 13.0933C3.99879 10.1313 4.01006 9.7804 4.06343 8.61065C4.11279 7.52907 4.29351 6.94169 4.44543 6.55079C4.64663 6.03302 4.88706 5.66344 5.27523 5.27527C5.66344 4.8871 6.03298 4.64667 6.55079 4.44543C6.94169 4.29356 7.52907 4.11284 8.61065 4.06348C9.7804 4.01011 10.1313 3.99883 13.0933 3.99883Z" fill="#45469B"/>
    <path d="M13.095 16.7898C11.0528 16.7898 9.39723 15.1343 9.39723 13.0921C9.39723 11.0498 11.0528 9.3943 13.095 9.3943C15.1372 9.3943 16.7928 11.0498 16.7928 13.0921C16.7928 15.1343 15.1372 16.7898 13.095 16.7898ZM13.095 7.39551C9.94885 7.39551 7.39844 9.94592 7.39844 13.0921C7.39844 16.2382 9.94885 18.7886 13.095 18.7886C16.2411 18.7886 18.7915 16.2382 18.7915 13.0921C18.7915 9.94592 16.2411 7.39551 13.095 7.39551Z" fill="#45469B"/>
    <path d="M20.346 7.17151C20.346 7.90671 19.75 8.50268 19.0148 8.50268C18.2796 8.50268 17.6836 7.90671 17.6836 7.17151C17.6836 6.4363 18.2796 5.84033 19.0148 5.84033C19.75 5.84033 20.346 6.4363 20.346 7.17151Z" fill="#45469B"/>
    </symbol>

    <symbol id="youtube-logo" viewBox="0 0 26 26" fill="none" xmlns="http://www.w3.org/2000/svg">
    <path d="M25.4568 6.84197C25.1578 5.72326 24.2769 4.84236 23.1582 4.54336C21.1304 4 13 4 13 4C13 4 4.86957 4 2.84177 4.54336C1.72326 4.84236 0.842156 5.72326 0.543207 6.84197C0 8.86957 0 13.1002 0 13.1002C0 13.1002 0 17.3306 0.543207 19.358C0.842156 20.4767 1.72326 21.3579 2.84177 21.6568C4.86957 22.2 13 22.2 13 22.2C13 22.2 21.1304 22.2 23.1582 21.6568C24.2769 21.3579 25.1578 20.4767 25.4568 19.358C25.9999 17.3306 25.9999 13.1002 25.9999 13.1002C25.9999 13.1002 25.9999 8.86957 25.4568 6.84197ZM10.3998 17.0002V9.20005L17.1547 13.1002L10.3998 17.0002Z" fill="#45469B"/>
    </symbol>

    <symbol id="linkedin-logo" viewBox="0 0 24 24" xmlns="http://www.w3.org/2000/svg">
    <path fill-rule="evenodd" clip-rule="evenodd" d="M23 22H17.9835V14.8242C17.9835 12.9459 17.1988 11.6637 15.4733 11.6637C14.1535 11.6637 13.4195 12.529 13.0778 13.3629C12.9497 13.6622 12.9698 14.0792 12.9698 14.4961V22H8C8 22 8.06406 9.28877 8 8.13332H12.9698V10.3096C13.2633 9.35804 14.8514 8 17.3857 8C20.5298 8 23 9.99459 23 14.2896V22ZM3.48757 7H3.45775C1.9667 7 1 5.8984 1 4.50204C1 3.07851 1.99528 2 3.51615 2C5.03579 2 5.97018 3.07579 6 4.49796C6 5.89432 5.03579 7 3.48757 7ZM2 8H6V22H2V8Z" fill="black"/>
    </symbol>

    <symbol id="arrow-left-icon" viewBox="0 0 7 10" xmlns="http://www.w3.org/2000/svg">
        <path d="M6.01161 1.63233C6.2996 1.38034 6.32879 0.942595 6.07679 0.6546C5.8248 0.366606 5.38706 0.337422 5.09906 0.589418L6.01161 1.63233ZM5.09906 9.41011C5.38706 9.66211 5.8248 9.63292 6.07679 9.34493C6.32879 9.05693 6.2996 8.61919 6.01161 8.3672L5.09906 9.41011ZM1.40887 5.2605L1.86515 4.73903L1.40887 5.2605ZM6.01161 8.3672L1.86515 4.73903L0.952589 5.78196L5.09906 9.41011L6.01161 8.3672ZM1.86515 5.2605L6.01161 1.63233L5.09906 0.589418L0.95259 4.21758L1.86515 5.2605ZM1.86515 4.73903C2.02289 4.87707 2.02289 5.12247 1.86515 5.2605L0.95259 4.21758C0.479346 4.63167 0.479344 5.36787 0.952589 5.78196L1.86515 4.73903Z" fill="#737A91"/>
    </symbol>

    

    <symbol id="arrow-right-icon" viewBox="0 0 7 10" xmlns="http://www.w3.org/2000/svg">
        <path d="M0.654893 8.36767C0.366904 8.61966 0.337715 9.05741 0.589715 9.3454C0.841704 9.63339 1.27945 9.66258 1.56745 9.41058L0.654893 8.36767ZM1.56745 0.589889C1.27945 0.337889 0.841704 0.367077 0.589715 0.655066C0.337715 0.943066 0.366904 1.38081 0.654893 1.6328L1.56745 0.589889ZM5.25764 4.7395L4.80136 5.26097L5.25764 4.7395ZM0.654893 1.6328L4.80136 5.26097L5.71392 4.21804L1.56745 0.589889L0.654893 1.6328ZM4.80136 4.7395L0.654893 8.36767L1.56745 9.41058L5.71391 5.78242L4.80136 4.7395ZM4.80136 5.26097C4.64361 5.12293 4.64361 4.87753 4.80136 4.7395L5.71391 5.78242C6.18716 5.36833 6.18716 4.63213 5.71392 4.21804L4.80136 5.26097Z" fill="#737A91"/>
    </symbol>

    <symbol id="search-icon" height="22" viewBox="0 0 22 22" fill="none" xmlns="http://www.w3.org/2000/svg">
        <path d="M21 21L16.1667 16.1667M18.7778 9.88889C18.7778 14.7981 14.7981 18.7778 9.88889 18.7778C4.97969 18.7778 1 14.7981 1 9.88889C1 4.97969 4.97969 1 9.88889 1C14.7981 1 18.7778 4.97969 18.7778 9.88889Z" stroke="#353678" stroke-width="2" stroke-linecap="round" stroke-linejoin="round"/>
    </symbol>

    <symbol id="close-icon" viewBox="0 0 22 22" fill="none" xmlns="http://www.w3.org/2000/svg">
    <path d="M14 8L8 14M8 8L14 14M21 11C21 16.5228 16.5228 21 11 21C5.47715 21 1 16.5228 1 11C1 5.47715 5.47715 1 11 1C16.5228 1 21 5.47715 21 11Z" stroke="#2F306A" stroke-width="1.5" stroke-linecap="round" stroke-linejoin="round"/>
    </symbol>

    <symbol id="download-icon" viewBox="0 0 27 28" fill="none" xmlns="http://www.w3.org/2000/svg">
    <path d="M25.5 18V23.3333C25.5 24.0406 25.219 24.7189 24.719 25.219C24.2189 25.719 23.5406 26 22.8333 26H4.16667C3.45942 26 2.78115 25.719 2.28105 25.219C1.78095 24.7189 1.5 24.0406 1.5 23.3333V18M6.83333 11.3333L13.5 18M13.5 18L20.1667 11.3333M13.5 18V2" stroke="currentColor" stroke-width="2.5" stroke-linecap="round" stroke-linejoin="round"/>
    </symbol>



    <symbol id="star-icon" viewBox="0 0 21 20" xmlns="http://www.w3.org/2000/svg">
    <path d="M19.9448 7.14856L13.8289 6.20799L11.0876 0.32924C10.8828 -0.109747 10.1674 -0.109747 9.96269 0.32924L7.22221 6.20799L1.10628 7.14856C0.603946 7.22618 0.403342 7.84126 0.755642 8.2043L5.19877 12.7895L4.1485 19.2716C4.06478 19.7865 4.61105 20.173 5.06282 19.9201L10.5255 16.8806L15.9883 19.9209C16.4359 20.1713 16.9871 19.7924 16.9026 19.2724L15.8523 12.7903L20.2954 8.20513C20.6477 7.84126 20.4463 7.22618 19.9448 7.14856Z" stroke="currentColor" fill="currentColor"/>
    </symbol>

    <symbol id="no-star-icon" viewBox="0 0 21 20" fill="none" xmlns="http://www.w3.org/2000/svg">
    <path d="M19.9448 7.14856L13.8289 6.20799L11.0876 0.32924C10.8828 -0.109747 10.1674 -0.109747 9.96269 0.32924L7.22221 6.20799L1.10628 7.14856C0.603946 7.22618 0.403342 7.84126 0.755642 8.2043L5.19877 12.7895L4.1485 19.2716C4.06478 19.7865 4.61105 20.173 5.06282 19.9201L10.5255 16.8806L15.9883 19.9209C16.4359 20.1713 16.9871 19.7924 16.9026 19.2724L15.8523 12.7903L20.2954 8.20513C20.6477 7.84126 20.4463 7.22618 19.9448 7.14856Z" stroke="currentColor"/>
    </symbol>

    <symbol id="modal-close-icon" viewBox="0 0 32 32" fill="none" xmlns="http://www.w3.org/2000/svg">
    <circle cx="16" cy="16" r="16" fill="currentColor"/>
    <path d="M20.7992 11.1998L11.1992 20.7998M11.1992 11.1998L20.7992 20.7998" stroke="white" stroke-width="1.5" stroke-linecap="round" stroke-linejoin="round"/>
    </symbol>

    <symbol id="question-icon" viewBox="0 0 23 24" fill="none" xmlns="http://www.w3.org/2000/svg">
    <path d="M8.4445 8.85C8.69136 8.14825 9.17861 7.55651 9.81995 7.17959C10.4613 6.80267 11.2153 6.66488 11.9485 6.79065C12.6817 6.91641 13.3468 7.2976 13.8258 7.8667C14.3049 8.43581 14.5671 9.1561 14.566 9.9C14.566 12 11.416 13.05 11.416 13.05M11.5 17.25H11.5105M22 12C22 17.799 17.299 22.5 11.5 22.5C5.70101 22.5 1 17.799 1 12C1 6.20101 5.70101 1.5 11.5 1.5C17.299 1.5 22 6.20101 22 12Z" stroke="currentColor" stroke-width="2" stroke-linecap="round" stroke-linejoin="round"/>
    </symbol>

    <symbol id="template-icon"  viewBox="0 0 56 56" fill="none" xmlns="http://www.w3.org/2000/svg">
    <path d="M24.5 0H1.75C0.78225 0 0 0.78225 0 1.75V19.25C0 20.2178 0.78225 21 1.75 21H24.5C25.4678 21 26.25 20.2178 26.25 19.25V1.75C26.25 0.78225 25.4678 0 24.5 0ZM22.75 17.5H3.5V3.5H22.75V17.5Z" fill="#8586AD"/>
    <path d="M54.25 0H31.5C30.5323 0 29.75 0.78225 29.75 1.75V29.75C29.75 30.7178 30.5323 31.5 31.5 31.5H54.25C55.2178 31.5 56 30.7178 56 29.75V1.75C56 0.78225 55.2178 0 54.25 0ZM52.5 28H33.25V3.5H52.5V28Z" fill="#8586AD"/>
    <path d="M24.5 24.5H1.75C0.78225 24.5 0 25.2823 0 26.25V54.25C0 55.2178 0.78225 56 1.75 56H24.5C25.4678 56 26.25 55.2178 26.25 54.25V26.25C26.25 25.2823 25.4678 24.5 24.5 24.5ZM22.75 52.5H3.5V28H22.75V52.5Z" fill="#8586AD"/>
    <path d="M54.25 35H31.5C30.5323 35 29.75 35.7823 29.75 36.75V54.25C29.75 55.2178 30.5323 56 31.5 56H54.25C55.2178 56 56 55.2178 56 54.25V36.75C56 35.7823 55.2178 35 54.25 35ZM52.5 52.5H33.25V38.5H52.5V52.5Z" fill="#8586AD"/>
    </symbol>

    <symbol id="upload-icon" viewBox="0 0 62 56" fill="none" xmlns="http://www.w3.org/2000/svg">
    <path d="M49.986 15.5421C47.901 5.08116 37.7306 -1.70868 27.2697 0.376262C19.6184 1.90123 13.6358 7.88008 12.1061 15.5304C4.68898 16.3852 -0.631461 23.0907 0.222862 30.5083C1.00937 37.3349 6.79135 42.4853 13.6631 42.4806H23.3197C24.3864 42.4806 25.2511 41.6159 25.2511 40.5492C25.2511 39.4825 24.3864 38.6178 23.3197 38.6178H13.6631C8.32951 38.5862 4.03199 34.2374 4.06308 28.9042C4.09463 23.5711 8.44348 19.2731 13.7771 19.3042C14.7614 19.3046 15.5884 18.5638 15.6967 17.5856C16.6773 9.10882 24.3441 3.03201 32.8209 4.01255C39.9475 4.8372 45.5693 10.4586 46.3935 17.5856C46.5555 18.5813 47.4183 19.3108 48.4271 19.3042C53.7607 19.3042 58.0842 23.6276 58.0842 28.9612C58.0842 34.2944 53.7607 38.6178 48.4271 38.6178H38.7705C37.7038 38.6178 36.8391 39.4825 36.8391 40.5492C36.8391 41.6159 37.7038 42.4806 38.7705 42.4806H48.4276C55.8937 42.434 61.9088 36.344 61.8627 28.8774C61.8203 22.0781 56.7349 16.3682 49.986 15.5421Z" fill="#8586AD"/>
    <path d="M37.8724 34.6584C38.6137 35.4261 39.8363 35.4473 40.6035 34.706C41.3707 33.9652 41.3919 32.7425 40.6511 31.9754C40.6355 31.9589 40.6195 31.9433 40.6035 31.9278L32.4125 23.735C31.6595 22.9795 30.4364 22.9781 29.681 23.7312L29.6777 23.735L21.4867 31.9278C20.7195 32.6686 20.6983 33.8912 21.4392 34.6584C22.1804 35.4256 23.4031 35.4468 24.1703 34.706C24.1863 34.6904 24.2023 34.6744 24.2178 34.6584L29.1139 29.7604V54.0686C29.1139 55.1353 29.9786 56 31.0453 56C32.1116 56 32.9763 55.1353 32.9763 54.0686V29.7604L37.8724 34.6584Z" fill="#8586AD"/>
    </symbol>
    
    <symbol id="profile-icon" viewBox="0 0 70 78" fill="none" xmlns="http://www.w3.org/2000/svg">
    <path d="M67 75V67C67 62.7565 65.3143 58.6869 62.3137 55.6863C59.3131 52.6857 55.2435 51 51 51H19C14.7565 51 10.6869 52.6857 7.68629 55.6863C4.68571 58.6869 3 62.7565 3 67V75M51 19C51 27.8366 43.8366 35 35 35C26.1634 35 19 27.8366 19 19C19 10.1634 26.1634 3 35 3C43.8366 3 51 10.1634 51 19Z" stroke="#D1D2E0" stroke-width="6" stroke-linecap="round" stroke-linejoin="round"/>
    </symbol>

    <symbol id="eye-icon" viewBox="0 0 18 14" fill="none" xmlns="http://www.w3.org/2000/svg">
    <path d="M1 7C1 7 3.90909 1 9 1C14.0909 1 17 7 17 7C17 7 14.0909 13 9 13C3.90909 13 1 7 1 7Z" stroke="#2F306A" stroke-width="1.4" stroke-linecap="round" stroke-linejoin="round"/>
    <path d="M9 9.25C10.205 9.25 11.1818 8.24264 11.1818 7C11.1818 5.75736 10.205 4.75 9 4.75C7.79502 4.75 6.81818 5.75736 6.81818 7C6.81818 8.24264 7.79502 9.25 9 9.25Z" stroke="#2F306A" stroke-width="1.4" stroke-linecap="round" stroke-linejoin="round"/>
    </symbol>

    <symbol id="slider-back-icon" viewBox="0 0 24 24" fill="none" xmlns="http://www.w3.org/2000/svg">
    <path d="M15 18L9 12L15 6" stroke="currentColor" stroke-width="2" stroke-linecap="round" stroke-linejoin="round"/>
    </symbol>

    <symbol id="slider-front-icon"  width="24" height="24" viewBox="0 0 24 24" fill="none" xmlns="http://www.w3.org/2000/svg">
    <path d="M9 18L15 12L9 6" stroke="currentColor" stroke-width="2" stroke-linecap="round" stroke-linejoin="round"/>
    </symbol>

    <symbol id="cart-icon" viewBox="0 0 29 26" fill="none" xmlns="http://www.w3.org/2000/svg">
    <path d="M9.27907 17.4336H9.28039C9.28148 17.4336 9.28258 17.4334 9.28368 17.4334H24.5813C24.9579 17.4334 25.289 17.1798 25.3925 16.8121L28.7675 4.81929C28.8403 4.56074 28.7893 4.28278 28.63 4.06817C28.4705 3.85357 28.2211 3.72731 27.9563 3.72731H7.33317L6.73002 0.971586C6.6441 0.579633 6.30177 0.300781 5.90626 0.300781H0.843751C0.377711 0.300781 0 0.684258 0 1.15741C0 1.63057 0.377711 2.01404 0.843751 2.01404H5.2295C5.33629 2.50237 8.11583 15.2015 8.27579 15.9321C7.37909 16.3278 6.75001 17.2355 6.75001 18.29C6.75001 19.7071 7.88556 20.8599 9.28127 20.8599H24.5813C25.0473 20.8599 25.425 20.4765 25.425 20.0033C25.425 19.5301 25.0473 19.1467 24.5813 19.1467H9.28127C8.8161 19.1467 8.43751 18.7623 8.43751 18.29C8.43751 17.8184 8.81479 17.4347 9.27907 17.4336ZM26.8377 5.44057L23.9447 15.7201H9.95802L7.70802 5.44057H26.8377Z" fill="white"/>
    <path d="M8.4375 23.4293C8.4375 24.8463 9.57305 25.9992 10.9688 25.9992C12.3645 25.9992 13.5 24.8463 13.5 23.4293C13.5 22.0123 12.3645 20.8594 10.9688 20.8594C9.57305 20.8594 8.4375 22.0123 8.4375 23.4293ZM10.9688 22.5726C11.4339 22.5726 11.8125 22.957 11.8125 23.4293C11.8125 23.9015 11.4339 24.2859 10.9688 24.2859C10.5036 24.2859 10.125 23.9015 10.125 23.4293C10.125 22.957 10.5036 22.5726 10.9688 22.5726Z" fill="white"/>
    <path d="M20.3625 23.4293C20.3625 24.8463 21.4981 25.9992 22.8938 25.9992C24.2895 25.9992 25.4251 24.8463 25.4251 23.4293C25.4251 22.0123 24.2895 20.8594 22.8938 20.8594C21.4981 20.8594 20.3625 22.0123 20.3625 23.4293ZM22.8938 22.5726C23.359 22.5726 23.7376 22.957 23.7376 23.4293C23.7376 23.9015 23.359 24.2859 22.8938 24.2859C22.4286 24.2859 22.0501 23.9015 22.0501 23.4293C22.0501 22.957 22.4286 22.5726 22.8938 22.5726Z" fill="white"/>
    </symbol>

    <symbol id="delete-icon" viewBox="0 0 16 18" fill="none" xmlns="http://www.w3.org/2000/svg">
    <path d="M1 4.2H2.55556M2.55556 4.2H15M2.55556 4.2V15.4C2.55556 15.8243 2.71944 16.2313 3.01117 16.5314C3.30289 16.8314 3.69855 17 4.11111 17H11.8889C12.3014 17 12.6971 16.8314 12.9888 16.5314C13.2806 16.2313 13.4444 15.8243 13.4444 15.4V4.2H2.55556ZM4.88889 4.2V2.6C4.88889 2.17565 5.05278 1.76869 5.3445 1.46863C5.63622 1.16857 6.03189 1 6.44444 1H9.55556C9.96811 1 10.3638 1.16857 10.6555 1.46863C10.9472 1.76869 11.1111 2.17565 11.1111 2.6V4.2M6.44444 8.2V13M9.55556 8.2V13" stroke="#E9048B" stroke-width="1.5" stroke-linecap="round" stroke-linejoin="round"/>
    </symbol>

    <symbol id="cart-close-icon" viewBox="0 0 20 20" fill="none" xmlns="http://www.w3.org/2000/svg">
    <path d="M18 2L2 18M2 2L18 18" stroke="white" stroke-width="2.3" stroke-linecap="round" stroke-linejoin="round"/>
    </symbol>

    <symbol id="call-icon" viewBox="0 0 20 22" fill="none" xmlns="http://www.w3.org/2000/svg">
    <path d="M18.9981 15.7251V18.5854C18.9992 18.8509 18.9447 19.1138 18.8381 19.3571C18.7315 19.6004 18.5752 19.8188 18.3792 19.9983C18.1831 20.1778 17.9517 20.3144 17.6997 20.3995C17.4476 20.4846 17.1806 20.5162 16.9156 20.4923C13.9762 20.1735 11.1526 19.171 8.67185 17.5653C6.36381 16.1014 4.40699 14.1484 2.94036 11.8447C1.32597 9.35744 0.321307 6.52557 0.00775347 3.57855C-0.0161177 3.3149 0.015276 3.04917 0.0999353 2.7983C0.184595 2.54742 0.320665 2.31688 0.499483 2.12136C0.6783 1.92585 0.895948 1.76963 1.13857 1.66267C1.38119 1.55571 1.64346 1.50034 1.9087 1.50009H4.77444C5.23803 1.49554 5.68746 1.65939 6.03896 1.9611C6.39046 2.26282 6.62005 2.68181 6.68494 3.13998C6.80589 4.05533 7.03021 4.95408 7.35361 5.81909C7.48213 6.16035 7.50995 6.53122 7.43376 6.88777C7.35758 7.24431 7.18058 7.57159 6.92375 7.83081L5.71058 9.04166C7.07043 11.4286 9.05056 13.4049 11.4421 14.7622L12.6552 13.5513C12.915 13.295 13.2429 13.1183 13.6001 13.0423C13.9573 12.9663 14.3289 12.994 14.6708 13.1223C15.5375 13.4451 16.438 13.669 17.3551 13.7897C17.8191 13.855 18.2429 14.0883 18.5458 14.4452C18.8487 14.802 19.0097 15.2576 18.9981 15.7251Z" stroke="#45469B" stroke-width="1.8" stroke-linecap="round" stroke-linejoin="round"/>
    </symbol>

    <symbol id="emoji-icon"  viewBox="0 0 65 64" fill="none" xmlns="http://www.w3.org/2000/svg">
    <path d="M30.2227 64C46.9142 64 60.4453 50.4688 60.4453 33.7773C60.4453 17.0858 46.9142 3.55469 30.2227 3.55469C13.5311 3.55469 0 17.0858 0 33.7773C0 50.4688 13.5311 64 30.2227 64Z" fill="#FFCC4D"/>
    <path d="M31.9619 50.6644C33.9256 50.6644 35.5175 48.6745 35.5175 46.2199C35.5175 43.7653 33.9256 41.7754 31.9619 41.7754C29.9982 41.7754 28.4062 43.7653 28.4062 46.2199C28.4062 48.6745 29.9982 50.6644 31.9619 50.6644Z" fill="#664500"/>
    <path d="M14.4319 38.01C14.1084 38.01 13.7795 37.9211 13.4862 37.7362C12.6559 37.2135 12.407 36.1166 12.9297 35.2846C14.5582 32.7014 19.5093 28.2836 26.601 30.0187C27.5539 30.2516 28.137 31.2152 27.9041 32.1681C27.6695 33.121 26.7023 33.7006 25.7548 33.4712C19.3476 31.9032 15.9733 37.1264 15.9395 37.1797C15.6 37.7166 15.0222 38.01 14.4319 38.01ZM35.7176 31.3574C35.202 31.3574 34.6936 31.1352 34.3415 30.7067C33.7193 29.9476 33.8295 28.8258 34.5904 28.2036C40.2367 23.5742 46.6119 25.4267 49.1951 27.0551C50.0253 27.5778 50.2742 28.6765 49.7498 29.5067C49.2289 30.3334 48.1355 30.5859 47.3035 30.0667C47.0582 29.9174 41.8776 26.8258 36.8429 30.9539C36.5122 31.2259 36.114 31.3574 35.7176 31.3574Z" fill="#664500"/>
    <path d="M23.7112 55.5941C23.5903 55.5941 23.4677 55.5781 23.3468 55.5443C22.6392 55.3434 22.2268 54.6074 22.4276 53.8981C23.2045 51.1603 22.8863 48.5131 21.5565 46.634C20.673 45.386 19.4143 44.6233 18.1023 44.5397C17.3662 44.4953 16.808 43.8606 16.8542 43.1264C16.9005 42.3921 17.5316 41.7912 18.2676 41.8801C20.3885 42.0117 22.3796 43.1833 23.7308 45.0926C25.5281 47.6331 25.9886 51.1069 24.9912 54.6234C24.8259 55.2119 24.2908 55.5941 23.7112 55.5941ZM43.3328 50.1522C43.0804 50.1522 42.8262 50.0811 42.6004 49.9318C40.5257 48.5629 39.3648 46.1682 39.4146 43.3628C39.4661 40.4561 40.8528 37.7574 42.9417 36.4845C43.5693 36.1005 44.3889 36.2996 44.7729 36.9307C45.1569 37.5601 44.9577 38.3779 44.3266 38.7619C43.0199 39.5583 42.115 41.4268 42.0795 43.409C42.0439 45.2846 42.771 46.8509 44.0671 47.706C44.6822 48.1113 44.8511 48.938 44.4457 49.5531C44.1897 49.9425 43.7666 50.1522 43.3328 50.1522Z" fill="#E2A62D"/>
    <path d="M30.5515 4.83319C30.475 4.74607 30.3559 4.69807 30.2155 4.67141C30.2155 4.67141 1.90577 -0.702892 0.680862 0.378012C-0.542266 1.46069 1.3262 30.2167 1.3262 30.2167C1.33509 30.3607 1.36709 30.4833 1.44532 30.5704C2.51911 31.7865 9.9041 27.0077 17.9415 19.9018C25.9808 12.7942 31.6253 6.0492 30.5515 4.83319Z" fill="#DD2E44"/>
    <path d="M0.592947 0.477552C0.56628 0.530886 0.543169 0.603776 0.525391 0.696222C0.808061 3.13359 3.53877 23.189 5.24012 29.4575C7.79305 28.0299 10.3869 26.0904 13.434 23.6743C10.8455 18.9365 2.03119 0.255327 0.592947 0.477552Z" fill="#EA596E"/>
    <path d="M53.1479 51.9651L34.3512 49.6486C32.3423 49.4673 28.8098 49.4495 28.9911 46.2672C29.1564 43.3818 32.6178 43.8263 35.1761 44.205L54.0883 47.3588L53.1479 51.9651Z" fill="#3B88C3"/>
    <path d="M54.1147 47.3617L46.6088 46.0746C45.7306 45.9163 44.9484 47.2248 44.9093 48.6097C44.8648 50.1493 45.3128 50.928 46.1999 51.1093L53.5672 52.0195L54.1147 47.3617Z" fill="#88C9F9"/>
    <path d="M62.0194 46.835L57.358 51.1213L49.0254 42.0599L53.6868 37.7736C56.1064 35.5478 59.9073 35.7078 62.1331 38.1274L62.3731 38.3887C64.5972 40.8101 64.4389 44.6092 62.0194 46.835Z" fill="#3B88C3"/>
    <path d="M57.3629 51.119C59.365 49.2781 59.1229 45.7574 56.8222 43.2551C54.5215 40.7529 51.0334 40.2167 49.0313 42.0575C47.0293 43.8983 47.2713 47.4191 49.572 49.9213C51.8727 52.4236 55.3608 52.9598 57.3629 51.119Z" fill="#88C9F9"/>
    <path d="M55.7172 49.3079C56.7183 48.3875 56.4108 46.4244 55.0306 44.9232C53.6503 43.422 51.7198 42.9511 50.7188 43.8715C49.7178 44.7919 50.0252 46.755 51.4055 48.2563C52.7857 49.7575 54.7162 50.2283 55.7172 49.3079Z" fill="#226699"/>
    <path d="M4.4421 62.224C5.91488 62.224 7.1088 61.0301 7.1088 59.5573C7.1088 58.0845 5.91488 56.8906 4.4421 56.8906C2.96932 56.8906 1.77539 58.0845 1.77539 59.5573C1.77539 61.0301 2.96932 62.224 4.4421 62.224Z" fill="#55ACEE"/>
    <path d="M51.5556 7.11121C53.5193 7.11121 55.1112 5.51931 55.1112 3.55561C55.1112 1.5919 53.5193 0 51.5556 0C49.5919 0 48 1.5919 48 3.55561C48 5.51931 49.5919 7.11121 51.5556 7.11121Z" fill="#55ACEE"/>
    <path d="M8.57103 51.9927L4.41453 42.0086L0.65625 52.7554L8.57103 51.9927ZM46.1467 8.8881L39.0355 10.6659L40.8133 3.55469L46.1467 8.8881Z" fill="#EA596E"/>
    <path d="M56.8984 23.1077L64.0114 14.2169L58.678 10.6631L56.8984 23.1077Z" fill="#77B255"/>
    </symbol>

    <symbol id="slider-left" viewBox="0 0 8 14" fill="none" xmlns="http://www.w3.org/2000/svg">
    <path d="M7 1L1 7L7 13" stroke="#C2C3D6" stroke-width="2" stroke-linecap="round" stroke-linejoin="round"/>
    </symbol>

    <symbol id="slider-right" viewBox="0 0 8 14" fill="none" xmlns="http://www.w3.org/2000/svg">
    <path d="M1 13L7 7L1 1" stroke="#C2C3D6" stroke-width="2" stroke-linecap="round" stroke-linejoin="round"/>
    </symbol>











    







</svg>